<svg width="529.000000" height="510.000000" viewBox="0 0 529 510" fill="none" xmlns="http://www.w3.org/2000/svg" xmlns:xlink="http://www.w3.org/1999/xlink">
	<desc>
			Created with Pixso.
	</desc>
	<defs>
		<clipPath id="clip505_457">
			<rect id="Developer activity-bro 1" rx="-0.500000" width="528.000000" height="509.000000" transform="translate(0.500000 0.500000)" fill="white" fill-opacity="0"/>
		</clipPath>
	</defs>
	<rect id="Developer activity-bro 1" rx="-0.500000" width="528.000000" height="509.000000" transform="translate(0.500000 0.500000)" fill="#FFFFFF" fill-opacity="0"/>
	<g clip-path="url(#clip505_457)">
		<path id="Vector" d="M510.46 198.2C452.66 99.18 295.86 134.45 263.84 86.29C247.43 61.67 229.09 33.05 202.47 18.19C177.1 3.96 147.69 -1.04 122.05 0.84C30.48 7.54 -8.34 89.47 9.25 179.44C32.73 299.46 139.12 422.06 265.5 422.92C331.6 423.41 394.77 399.69 444.23 366.33L445.33 365.58C494.79 331.91 554.61 273.78 510.46 198.2Z" fill="#B5B0CA" fill-opacity="1.000000" fill-rule="nonzero"/>
		<g opacity="0.700000"/>
		<path id="Vector" d="M61.73 205.39L55.3 205.39C48.4 205.39 41.79 208.14 36.91 213.01C32.03 217.89 29.29 224.51 29.29 231.4L29.29 374.13C29.29 381.03 32.03 387.65 36.91 392.53C41.79 397.4 48.4 400.14 55.3 400.14L143.49 400.14C150.39 400.14 157 397.4 161.88 392.53C166.76 387.65 169.5 381.03 169.5 374.13" stroke="#263238" stroke-opacity="1.000000" stroke-width="1.103110" stroke-linejoin="round" stroke-dasharray="4.41242 4.41242"/>
		<path id="Vector" d="M162.31 70.72L162.31 42.53C162.31 38.31 163.99 34.26 166.97 31.28C169.95 28.29 173.99 26.61 178.21 26.6L292.89 26.6C297.12 26.6 301.17 28.28 304.15 31.26C307.14 34.25 308.82 38.3 308.82 42.53" stroke="#263238" stroke-opacity="1.000000" stroke-width="1.103110" stroke-linejoin="round" stroke-dasharray="4.41242 4.41242"/>
		<path id="Vector" d="M492.64 478.45C492.64 495.98 390.94 510.19 265.5 510.19C140.05 510.19 38.35 495.98 38.35 478.45C38.35 460.92 140.05 446.71 265.5 446.71C390.94 446.71 492.64 460.92 492.64 478.45Z" fill="#B5B0CA" fill-opacity="1.000000" fill-rule="evenodd"/>
		<path id="Vector" d="M479.62 108.54L479.62 322.1C479.62 329.08 476.84 335.78 471.91 340.72C466.97 345.65 460.28 348.43 453.3 348.43L77.69 348.43C70.71 348.43 64.02 345.65 59.08 340.72C54.15 335.78 51.37 329.08 51.37 322.1L51.37 108.54C51.37 107.91 51.37 107.36 51.46 106.69C51.92 100.05 54.88 93.83 59.75 89.28C64.62 84.74 71.03 82.21 77.69 82.21L453.3 82.21C459.97 82.21 466.38 84.75 471.25 89.3C476.12 93.85 479.08 100.09 479.53 106.74C479.59 107.31 479.62 107.93 479.62 108.54Z" fill="#FFFFFF" fill-opacity="1.000000" fill-rule="nonzero"/>
		<path id="Vector" d="M479.62 322.1C479.62 329.08 476.84 335.78 471.91 340.72C466.97 345.65 460.28 348.43 453.3 348.43L77.69 348.43C70.71 348.43 64.02 345.65 59.08 340.72C54.15 335.78 51.37 329.08 51.37 322.1L51.37 108.54C51.37 107.91 51.37 107.36 51.46 106.69C51.92 100.05 54.88 93.83 59.75 89.28C64.62 84.74 71.03 82.21 77.69 82.21L453.3 82.21C459.97 82.21 466.38 84.75 471.25 89.3C476.12 93.85 479.08 100.09 479.53 106.74C479.59 107.31 479.62 107.93 479.62 108.54L479.62 322.1Z" stroke="#263238" stroke-opacity="1.000000" stroke-width="1.103110" stroke-linejoin="round"/>
		<path id="Vector" d="M64.18 116.56L468.15 116.56L468.15 313.84C468.15 320.38 465.55 326.65 460.92 331.28C456.3 335.91 450.02 338.51 443.48 338.51L88.86 338.51C82.32 338.51 76.05 335.91 71.42 331.28C66.79 326.65 64.2 320.38 64.2 313.84L64.2 116.56L64.18 116.56Z" fill="#263238" fill-opacity="1.000000" fill-rule="nonzero"/>
		<g opacity="0.200000">
			<path id="Vector" d="M468.16 116.56L468.16 313.84C468.19 320.34 465.64 326.6 461.07 331.22C456.49 335.85 450.27 338.47 443.76 338.51L88.58 338.51C82.07 338.47 75.85 335.85 71.27 331.22C66.7 326.6 64.15 320.34 64.18 313.84L64.18 116.56L468.16 116.56Z" fill="#FFFFFF" fill-opacity="1.000000" fill-rule="nonzero"/>
		</g>
		<path id="Vector" d="M479.53 106.74L51.46 106.74C51.92 100.1 54.88 93.88 59.75 89.33C64.62 84.79 71.03 82.26 77.69 82.26L453.3 82.26C459.96 82.26 466.37 84.79 471.24 89.33C476.11 93.88 479.07 100.1 479.53 106.74Z" fill="#F13939" fill-opacity="1.000000" fill-rule="nonzero"/>
		<path id="Vector" d="M51.46 106.74C51.92 100.1 54.88 93.88 59.75 89.33C64.62 84.79 71.03 82.26 77.69 82.26L453.3 82.26C459.96 82.26 466.37 84.79 471.24 89.33C476.11 93.88 479.07 100.1 479.53 106.74L51.46 106.74Z" stroke="#263238" stroke-opacity="1.000000" stroke-width="1.103110"/>
		<path id="Vector" d="M104.06 94.45C104.06 95.37 103.78 96.27 103.27 97.04C102.76 97.81 102.03 98.41 101.18 98.76C100.33 99.11 99.39 99.2 98.49 99.02C97.58 98.84 96.75 98.4 96.1 97.75C95.45 97.1 95 96.27 94.82 95.36C94.64 94.46 94.74 93.52 95.09 92.67C95.44 91.82 96.04 91.09 96.81 90.58C97.57 90.06 98.47 89.79 99.4 89.79C100.63 89.79 101.82 90.28 102.69 91.16C103.57 92.03 104.06 93.22 104.06 94.45Z" fill="#263238" fill-opacity="1.000000" fill-rule="nonzero"/>
		<path id="Vector" d="M123.77 94.45C123.77 95.37 123.5 96.27 122.98 97.04C122.47 97.81 121.74 98.41 120.89 98.76C120.04 99.11 119.1 99.2 118.2 99.02C117.29 98.84 116.46 98.4 115.81 97.75C115.16 97.1 114.72 96.27 114.54 95.36C114.36 94.46 114.45 93.52 114.8 92.67C115.15 91.82 115.75 91.09 116.52 90.58C117.28 90.06 118.19 89.79 119.11 89.79C120.34 89.79 121.53 90.28 122.4 91.16C123.28 92.03 123.77 93.22 123.77 94.45Z" fill="#263238" fill-opacity="1.000000" fill-rule="nonzero"/>
		<path id="Vector" d="M143.48 94.45C143.48 97.03 141.39 99.11 138.82 99.11C136.25 99.11 134.16 97.03 134.16 94.45C134.16 91.88 136.25 89.79 138.82 89.79C141.39 89.79 143.48 91.88 143.48 94.45Z" fill="#263238" fill-opacity="1.000000" fill-rule="evenodd"/>
		<path id="Vector" d="M468.15 313.84C468.15 320.38 465.55 326.65 460.92 331.28C456.3 335.91 450.02 338.51 443.48 338.51L88.86 338.51C83.15 338.5 77.62 336.52 73.21 332.9C68.8 329.27 65.78 324.23 64.67 318.63L64.67 318.56C64.37 316.99 64.22 315.4 64.22 313.81L64.22 116.56L468.15 116.56L468.15 313.84Z" stroke="#263238" stroke-opacity="1.000000" stroke-width="1.103110"/>
		<path id="Vector" d="M467.77 147.07C466.04 146.09 464.2 145.33 462.29 144.8L460.07 134.9L450.65 134.9L448.46 144.8C446.54 145.32 444.69 146.08 442.96 147.07L434.45 141.62L427.8 148.25L433.15 156.75C432.17 158.49 431.41 160.34 430.88 162.26L420.98 164.45L420.98 173.87L430.88 176.09C431.4 178.02 432.16 179.88 433.15 181.61L427.7 190.18L434.37 196.83L442.92 191.39C444.65 192.37 446.5 193.13 448.41 193.66L450.62 203.56L460 203.56L462.21 193.66C464.12 193.13 465.96 192.36 467.68 191.39L468.12 191.67L468.12 146.83L467.77 147.07ZM455.39 181.46C452.98 181.46 450.63 180.75 448.62 179.41C446.62 178.07 445.06 176.17 444.14 173.95C443.22 171.72 442.98 169.27 443.45 166.91C443.92 164.55 445.08 162.38 446.79 160.68C448.49 158.98 450.66 157.82 453.02 157.36C455.38 156.89 457.83 157.13 460.05 158.05C462.27 158.98 464.17 160.54 465.51 162.54C466.85 164.54 467.56 166.9 467.55 169.3C467.55 170.9 467.24 172.48 466.63 173.96C466.02 175.43 465.12 176.78 463.99 177.9C462.86 179.03 461.52 179.93 460.04 180.54C458.57 181.15 456.98 181.46 455.39 181.46Z" fill="#263238" fill-opacity="1.000000" fill-rule="nonzero"/>
		<path id="Vector" d="M298.05 156.61L298.05 136.76L277.18 132.12C276.05 128.09 274.46 124.2 272.43 120.53L274.96 116.56L176.4 116.56L178.83 120.43C176.78 124.08 175.19 127.96 174.09 132L153.2 136.65L153.2 156.55L174.09 161.21C175.19 165.28 176.78 169.2 178.83 172.89L167.37 190.93L181.42 204.97L199.45 193.49C203.1 195.54 206.99 197.16 211.03 198.29L215.68 219.11L235.49 219.11L240.16 198.24C244.19 197.1 248.07 195.49 251.71 193.44L269.75 204.92L283.79 190.88L272.4 172.84C274.42 169.18 276.01 165.3 277.14 161.27L298.05 156.61ZM225.71 172.34C220.63 172.34 215.67 170.84 211.45 168.02C207.23 165.2 203.95 161.19 202 156.5C200.06 151.82 199.56 146.66 200.54 141.68C201.53 136.7 203.98 132.13 207.57 128.55C211.15 124.96 215.72 122.51 220.7 121.52C225.68 120.53 230.83 121.04 235.52 122.98C240.21 124.93 244.22 128.21 247.04 132.43C249.85 136.65 251.36 141.61 251.36 146.69C251.36 150.06 250.7 153.39 249.41 156.5C248.12 159.62 246.23 162.45 243.85 164.83C241.47 167.21 238.64 169.1 235.52 170.39C232.41 171.68 229.07 172.34 225.71 172.34Z" fill="#263238" fill-opacity="1.000000" fill-rule="nonzero"/>
		<path id="Vector" d="M166.32 292.95L167.16 277.19L150.83 272.58C150.08 269.35 148.95 266.2 147.49 263.21L157.36 249.36L146.78 237.63L132 245.93C129.17 244.16 126.15 242.71 123 241.63L120.17 224.88L104.42 224.16L99.87 240.54C96.63 241.27 93.48 242.38 90.5 243.86L76.66 234L64.91 244.57L73.28 259.36C71.49 262.17 70.04 265.19 68.96 268.35L64.22 269.13L64.22 290.48L67.68 291.45C68.4 294.7 69.51 297.85 70.99 300.84L64.18 310.38L64.63 318.56L64.63 318.63L71.67 326.42L86.47 318.06C89.29 319.87 92.32 321.33 95.49 322.41L98.27 338.49L98.4 339.17L114.15 340L114.57 338.49L118.7 323.63C121.96 322.9 125.12 321.79 128.12 320.31L141.94 330.16L153.68 319.6L145.38 304.8C147.16 301.99 148.59 298.97 149.64 295.82L166.32 292.95ZM124.49 268.34C121.79 265.34 118.27 263.2 114.36 262.21C110.45 261.21 106.33 261.4 102.52 262.74C98.72 264.09 95.4 266.53 92.98 269.76C90.57 273 89.16 276.87 88.95 280.9C88.74 284.93 89.73 288.94 91.79 292.4C93.85 295.87 96.9 298.65 100.54 300.39C104.18 302.13 108.26 302.75 112.25 302.17C116.24 301.59 119.98 299.84 122.97 297.14C126.98 293.52 129.39 288.46 129.67 283.07C129.95 277.69 128.09 272.4 124.49 268.39L124.49 268.34Z" fill="#263238" fill-opacity="1.000000" fill-rule="nonzero"/>
		<path id="Vector" d="M292.3 269.45C292.91 267.01 293.23 264.51 293.26 261.99L304.59 256.06L301.45 244.57L288.67 245.16C287.38 243.02 285.83 241.03 284.08 239.23L287.86 227L277.54 221.07L268.91 230.49C266.47 229.9 263.98 229.59 261.47 229.54L255.55 218.22L244.06 221.34L244.67 234.13C242.52 235.43 240.53 236.97 238.74 238.72L226.5 234.94L220.57 245.25L230.06 253.87C229.44 256.3 229.13 258.8 229.12 261.31L217.77 267.24L220.9 278.72L233.71 278.11C234.98 280.27 236.51 282.26 238.28 284.04L234.47 296.21L244.8 302.14L253.39 292.79C255.83 293.41 258.33 293.72 260.85 293.73L266.78 305.07L278.26 301.95L277.75 291.01L277.66 289.14C279.84 287.86 281.86 286.32 283.67 284.55L295.89 288.35L300.95 279.52L301.8 278.03L292.3 269.45ZM265.18 276.43C262.23 277.24 259.11 277.16 256.21 276.2C253.32 275.23 250.77 273.43 248.9 271.02C247.02 268.6 245.91 265.69 245.7 262.64C245.48 259.6 246.18 256.56 247.69 253.9C249.21 251.25 251.48 249.11 254.22 247.76C256.95 246.4 260.03 245.88 263.06 246.27C266.09 246.67 268.93 247.95 271.23 249.96C273.53 251.97 275.18 254.62 275.97 257.57C277.02 261.5 276.48 265.69 274.46 269.22C272.44 272.76 269.1 275.35 265.18 276.43Z" fill="#263238" fill-opacity="1.000000" fill-rule="nonzero"/>
		<path id="Vector" d="M423.61 289.66L426.22 273.89L410.26 267.47C409.9 264.11 409.13 260.81 407.97 257.63L419.46 244.83L410.16 231.78L394.32 238.51C391.69 236.4 388.81 234.62 385.76 233.2L384.83 216.01L369.06 213.4L362.59 229.29C359.25 229.69 355.96 230.46 352.79 231.61L339.95 220.11L326.97 229.41L333.7 245.25C331.85 247.56 330.24 250.06 328.9 252.71C328.72 253.07 328.53 253.44 328.37 253.81L311.19 254.76L308.57 270.51L311.16 271.55L324.53 276.95C324.9 280.29 325.67 283.58 326.82 286.75L315.31 299.63L324.62 312.67L340.45 305.91C343.07 308.04 345.94 309.84 349 311.27L349.89 328.38L365.65 330.99L372.11 315.21C375.46 314.84 378.76 314.07 381.93 312.91L394.73 324.4L407.78 315.09L401.04 299.25C403.19 296.61 405 293.73 406.44 290.65L423.61 289.66ZM379.38 288.95C376.06 291.33 372.11 292.68 368.03 292.81C363.94 292.95 359.91 291.87 356.44 289.72C352.97 287.56 350.22 284.42 348.53 280.7C346.85 276.99 346.3 272.85 346.96 268.82C347.63 264.79 349.47 261.05 352.26 258.06C355.05 255.08 358.67 253 362.64 252.07C366.62 251.14 370.78 251.41 374.61 252.85C378.43 254.28 381.74 256.82 384.12 260.14C387.31 264.6 388.6 270.13 387.7 275.53C386.81 280.94 383.8 285.76 379.35 288.95L379.38 288.95Z" fill="#263238" fill-opacity="1.000000" fill-rule="nonzero"/>
		<path id="Vector" d="M209.85 172.89L85.82 172.89C77.23 172.89 70.27 179.85 70.27 188.43L70.27 360.16C70.27 368.75 77.23 375.71 85.82 375.71L209.85 375.71C218.44 375.71 225.4 368.75 225.4 360.16L225.4 188.43C225.4 179.85 218.44 172.89 209.85 172.89Z" fill="#F13939" fill-opacity="1.000000" fill-rule="nonzero"/>
		<path id="Vector" d="M209.85 172.89C218.44 172.89 225.4 179.85 225.4 188.43L225.4 360.16C225.4 368.75 218.44 375.71 209.85 375.71L85.82 375.71C77.23 375.71 70.27 368.75 70.27 360.16L70.27 188.43C70.27 179.85 77.23 172.89 85.82 172.89L209.85 172.89Z" stroke="#263238" stroke-opacity="1.000000" stroke-width="1.103110"/>
		<g opacity="0.200000">
			<path id="Vector" d="M85.82 172.89L209.85 172.89C218.44 172.89 225.4 179.85 225.4 188.43L225.4 360.16C225.4 368.75 218.44 375.71 209.85 375.71L85.82 375.71C77.23 375.71 70.27 368.75 70.27 360.16L70.27 188.43C70.27 179.85 77.23 172.89 85.82 172.89Z" fill="#000000" fill-opacity="1.000000" fill-rule="evenodd"/>
		</g>
		<path id="Vector" d="M239.83 203.76L239.83 375.49C239.83 377.53 239.43 379.55 238.65 381.44C237.87 383.33 236.72 385.04 235.28 386.49C233.84 387.93 232.12 389.08 230.23 389.86C228.35 390.64 226.32 391.05 224.28 391.05L100.25 391.05C98.21 391.05 96.19 390.64 94.3 389.86C92.41 389.08 90.7 387.93 89.26 386.48C87.82 385.04 86.67 383.32 85.89 381.44C85.11 379.55 84.71 377.53 84.71 375.49L84.71 203.76C84.71 199.64 86.35 195.68 89.26 192.77C92.18 189.85 96.13 188.21 100.25 188.21L224.28 188.21C228.41 188.21 232.36 189.85 235.28 192.76C238.19 195.68 239.83 199.63 239.83 203.76Z" fill="#FFFFFF" fill-opacity="1.000000" fill-rule="nonzero"/>
		<path id="Vector" d="M239.83 375.49C239.83 377.53 239.43 379.55 238.65 381.44C237.87 383.33 236.72 385.04 235.28 386.49C233.84 387.93 232.12 389.08 230.23 389.86C228.35 390.64 226.32 391.05 224.28 391.05L100.25 391.05C98.21 391.05 96.19 390.64 94.3 389.86C92.41 389.08 90.7 387.93 89.26 386.48C87.82 385.04 86.67 383.32 85.89 381.44C85.11 379.55 84.71 377.53 84.71 375.49L84.71 203.76C84.71 199.64 86.35 195.68 89.26 192.77C92.18 189.85 96.13 188.21 100.25 188.21L224.28 188.21C228.41 188.21 232.36 189.85 235.28 192.76C238.19 195.68 239.83 199.63 239.83 203.76L239.83 375.49Z" stroke="#263238" stroke-opacity="1.000000" stroke-width="1.103110" stroke-linejoin="round"/>
		<path id="Vector" d="M239.83 203.76L239.83 212.95L84.71 212.95L84.71 203.76C84.71 199.64 86.35 195.68 89.26 192.77C92.18 189.85 96.13 188.21 100.25 188.21L224.28 188.21C228.41 188.21 232.36 189.85 235.28 192.76C238.19 195.68 239.83 199.63 239.83 203.76Z" fill="#F13939" fill-opacity="1.000000" fill-rule="nonzero"/>
		<path id="Vector" d="M239.83 212.95L84.71 212.95L84.71 203.76C84.71 199.64 86.35 195.68 89.26 192.77C92.18 189.85 96.13 188.21 100.25 188.21L224.28 188.21C228.41 188.21 232.36 189.85 235.28 192.76C238.19 195.68 239.83 199.63 239.83 203.76L239.83 212.95Z" stroke="#263238" stroke-opacity="1.000000" stroke-width="1.103110"/>
		<path id="Vector" d="M99.3 223.6L137.47 223.6L137.47 230.01L99.3 230.01L99.3 223.6Z" fill="#F13939" fill-opacity="1.000000" fill-rule="evenodd"/>
		<path id="Vector" d="M99.3 280.99L137.47 280.99L137.47 287.4L99.3 287.4L99.3 280.99Z" fill="#F13939" fill-opacity="1.000000" fill-rule="evenodd"/>
		<path id="Vector" d="M99.3 333.04L137.47 333.04L137.47 339.44L99.3 339.44L99.3 333.04Z" fill="#F13939" fill-opacity="1.000000" fill-rule="evenodd"/>
		<path id="Vector" d="M99.3 239.46L207.69 239.46L207.69 244.15L99.3 244.15L99.3 239.46Z" fill="#263238" fill-opacity="1.000000" fill-rule="evenodd"/>
		<path id="Vector" d="M99.3 248.44L188.14 248.44L188.14 253.01L99.3 253.01L99.3 248.44Z" fill="#263238" fill-opacity="1.000000" fill-rule="evenodd"/>
		<path id="Vector" d="M99.3 257.27L199.78 257.27L199.78 261.85L99.3 261.85L99.3 257.27Z" fill="#263238" fill-opacity="1.000000" fill-rule="evenodd"/>
		<path id="Vector" d="M99.3 266.1L199.78 266.1L199.78 270.67L99.3 270.67L99.3 266.1Z" fill="#263238" fill-opacity="1.000000" fill-rule="evenodd"/>
		<path id="Vector" d="M99.3 291.5L207.69 291.5L207.69 296.2L99.3 296.2L99.3 291.5Z" fill="#263238" fill-opacity="1.000000" fill-rule="evenodd"/>
		<path id="Vector" d="M99.3 300.48L188.14 300.48L188.14 305.06L99.3 305.06L99.3 300.48Z" fill="#263238" fill-opacity="1.000000" fill-rule="evenodd"/>
		<path id="Vector" d="M99.3 309.32L199.78 309.32L199.78 313.89L99.3 313.89L99.3 309.32Z" fill="#263238" fill-opacity="1.000000" fill-rule="evenodd"/>
		<path id="Vector" d="M99.3 348.65L207.69 348.65L207.69 353.34L99.3 353.34L99.3 348.65Z" fill="#263238" fill-opacity="1.000000" fill-rule="evenodd"/>
		<path id="Vector" d="M99.3 357.64L188.14 357.64L188.14 362.21L99.3 362.21L99.3 357.64Z" fill="#263238" fill-opacity="1.000000" fill-rule="evenodd"/>
		<path id="Vector" d="M99.3 366.47L199.78 366.47L199.78 371.05L99.3 371.05L99.3 366.47Z" fill="#263238" fill-opacity="1.000000" fill-rule="evenodd"/>
		<path id="Vector" d="M414.66 69.13L414.66 138.54C414.66 140.97 414.18 143.38 413.25 145.63C412.31 147.88 410.95 149.93 409.22 151.65C407.5 153.37 405.46 154.74 403.21 155.67C400.96 156.6 398.55 157.08 396.11 157.08L236.26 157.08C233.83 157.08 231.41 156.6 229.16 155.67C226.91 154.74 224.87 153.37 223.15 151.65C221.42 149.93 220.06 147.88 219.12 145.63C218.19 143.38 217.71 140.97 217.71 138.54L217.71 69.13C217.71 64.21 219.67 59.49 223.15 56.02C226.63 52.54 231.34 50.58 236.26 50.58L396.11 50.58C401.03 50.58 405.75 52.53 409.23 56.01C412.7 59.49 414.66 64.21 414.66 69.13Z" fill="#FFFFFF" fill-opacity="1.000000" fill-rule="nonzero"/>
		<path id="Vector" d="M414.66 138.54C414.66 140.97 414.18 143.38 413.25 145.63C412.31 147.88 410.95 149.93 409.22 151.65C407.5 153.37 405.46 154.74 403.21 155.67C400.96 156.6 398.55 157.08 396.11 157.08L236.26 157.08C233.83 157.08 231.41 156.6 229.16 155.67C226.91 154.74 224.87 153.37 223.15 151.65C221.42 149.93 220.06 147.88 219.12 145.63C218.19 143.38 217.71 140.97 217.71 138.54L217.71 69.13C217.71 64.21 219.67 59.49 223.15 56.02C226.63 52.54 231.34 50.58 236.26 50.58L396.11 50.58C401.03 50.58 405.75 52.53 409.23 56.01C412.7 59.49 414.66 64.21 414.66 69.13L414.66 138.54Z" stroke="#222221" stroke-opacity="1.000000" stroke-width="1.103110"/>
		<path id="Vector" d="M414.66 69.13L414.66 70.72L217.71 70.72L217.71 69.13C217.71 64.21 219.67 59.49 223.15 56.02C226.63 52.54 231.34 50.58 236.26 50.58L396.11 50.58C401.03 50.58 405.75 52.53 409.23 56.01C412.7 59.49 414.66 64.21 414.66 69.13Z" fill="#F13939" fill-opacity="1.000000" fill-rule="nonzero"/>
		<path id="Vector" d="M414.66 70.72L217.71 70.72L217.71 69.13C217.71 64.21 219.67 59.49 223.15 56.02C226.63 52.54 231.34 50.58 236.26 50.58L396.11 50.58C401.03 50.58 405.75 52.53 409.23 56.01C412.7 59.49 414.66 64.21 414.66 69.13L414.66 70.72Z" stroke="#263238" stroke-opacity="1.000000" stroke-width="1.103110"/>
		<path id="Vector" d="M246.65 63.97C246.25 64.37 245.75 64.64 245.19 64.75C244.64 64.86 244.07 64.81 243.55 64.59C243.03 64.38 242.58 64.01 242.27 63.54C241.96 63.07 241.79 62.52 241.79 61.96C241.79 61.4 241.96 60.85 242.27 60.38C242.58 59.91 243.03 59.54 243.55 59.33C244.07 59.11 244.64 59.06 245.19 59.17C245.75 59.28 246.25 59.55 246.65 59.95C247.18 60.48 247.48 61.21 247.48 61.96C247.48 62.71 247.18 63.44 246.65 63.97Z" fill="#263238" fill-opacity="1.000000" fill-rule="nonzero"/>
		<path id="Vector" d="M259.84 63.97C259.44 64.37 258.93 64.64 258.38 64.75C257.83 64.86 257.26 64.81 256.74 64.59C256.21 64.38 255.77 64.01 255.46 63.54C255.14 63.07 254.98 62.52 254.98 61.96C254.98 61.4 255.14 60.85 255.46 60.38C255.77 59.91 256.21 59.54 256.74 59.33C257.26 59.11 257.83 59.06 258.38 59.17C258.93 59.28 259.44 59.55 259.84 59.95C260.37 60.48 260.66 61.21 260.66 61.96C260.66 62.71 260.37 63.44 259.84 63.97Z" fill="#263238" fill-opacity="1.000000" fill-rule="nonzero"/>
		<path id="Vector" d="M273.03 63.97C272.63 64.37 272.12 64.64 271.57 64.75C271.02 64.86 270.44 64.81 269.92 64.59C269.4 64.38 268.96 64.01 268.65 63.54C268.33 63.07 268.16 62.52 268.16 61.96C268.16 61.4 268.33 60.85 268.65 60.38C268.96 59.91 269.4 59.54 269.92 59.33C270.44 59.11 271.02 59.06 271.57 59.17C272.12 59.28 272.63 59.55 273.03 59.95C273.56 60.48 273.85 61.21 273.85 61.96C273.85 62.71 273.56 63.44 273.03 63.97Z" fill="#263238" fill-opacity="1.000000" fill-rule="nonzero"/>
		<path id="Vector" d="M294.65 83.48L294.65 139.13L230.27 139.13L230.27 83.48L294.65 83.48Z" stroke="#263238" stroke-opacity="1.000000" stroke-width="1.103110" stroke-linejoin="round" stroke-dasharray="4.41242 4.41242"/>
		<path id="Vector" d="M304.59 83.48L378.68 83.48L378.68 87.39L304.59 87.39L304.59 83.48Z" fill="#263238" fill-opacity="1.000000" fill-rule="evenodd"/>
		<path id="Vector" d="M304.59 91.58L361.42 91.58L361.42 95.48L304.59 95.48L304.59 91.58Z" fill="#263238" fill-opacity="1.000000" fill-rule="evenodd"/>
		<path id="Vector" d="M304.59 99.65L389.21 99.65L389.21 103.6L304.59 103.6L304.59 99.65Z" fill="#263238" fill-opacity="1.000000" fill-rule="evenodd"/>
		<path id="Vector" d="M304.59 107.51L376.65 107.51L376.65 111.46L304.59 111.46L304.59 107.51Z" fill="#263238" fill-opacity="1.000000" fill-rule="evenodd"/>
		<path id="Vector" d="M420.04 241.39L383.81 241.39C379.53 241.39 376.07 244.86 376.07 249.14L376.07 270.4C376.07 274.68 379.53 278.15 383.81 278.15L420.04 278.15C424.32 278.15 427.79 274.68 427.79 270.4L427.79 249.14C427.79 244.86 424.32 241.39 420.04 241.39Z" fill="#FFFFFF" fill-opacity="1.000000" fill-rule="nonzero"/>
		<path id="Vector" d="M420.04 241.39C424.32 241.39 427.79 244.86 427.79 249.14L427.79 270.4C427.79 274.68 424.32 278.15 420.04 278.15L383.81 278.15C379.53 278.15 376.07 274.68 376.07 270.4L376.07 249.14C376.07 244.86 379.53 241.39 383.81 241.39L420.04 241.39Z" stroke="#263238" stroke-opacity="1.000000" stroke-width="1.103110" stroke-linejoin="round"/>
		<path id="Vector" d="M392.75 252.45L382.8 258.68L392.04 266.87" stroke="#263238" stroke-opacity="1.000000" stroke-width="1.103110" stroke-linejoin="round" stroke-linecap="round"/>
		<path id="Vector" d="M410.88 267.46L419.82 259.85L409.5 253.09" stroke="#263238" stroke-opacity="1.000000" stroke-width="1.103110" stroke-linejoin="round" stroke-linecap="round"/>
		<path id="Vector" d="M397.59 272.16L404.93 249.12" stroke="#263238" stroke-opacity="1.000000" stroke-width="1.103110" stroke-linejoin="round" stroke-linecap="round"/>
		<path id="Vector" d="M321.07 472.6C321.07 472.6 286.68 482.46 281.87 484.16C277.51 485.71 265.67 489.86 256.79 488.56C255.93 488.44 255.08 488.26 254.25 488.02C245.25 485.34 241.21 482.84 240.02 477.18C238.83 471.52 243.32 467.35 247.63 464.68C251.95 462.01 275.36 459.22 275.36 459.22L281.02 460.88L321.07 472.6Z" fill="#F13939" fill-opacity="1.000000" fill-rule="nonzero"/>
		<path id="Vector" d="M256.79 488.56C255.93 488.44 255.08 488.26 254.25 488.02C245.25 485.34 241.21 482.84 240.02 477.18C238.83 471.52 243.32 467.35 247.63 464.68C251.95 462.01 275.36 459.22 275.36 459.22L281.02 460.88C275.9 463.25 256.82 464.55 252.66 466.94C248.5 469.34 246.5 473.85 248.95 479.99C250.27 483.19 253.78 486.33 256.79 488.56Z" fill="#FFFFFF" fill-opacity="1.000000" fill-rule="nonzero"/>
		<path id="Vector" d="M315.9 474C315.9 474 290.07 480.69 279.82 484.97C269.57 489.25 250.04 491.13 243.06 482.3C236.07 473.48 242.25 465.86 249.21 464.17C256.17 462.47 270.25 459.8 277.94 460.88" stroke="#263238" stroke-opacity="1.000000" stroke-width="1.103110" stroke-linejoin="round" stroke-linecap="round"/>
		<path id="Vector" d="M257.3 488.1C257.3 488.1 244.16 480.89 248.52 470.78C251.75 463.34 269.28 464.95 277.96 460.88" stroke="#263238" stroke-opacity="1.000000" stroke-width="1.103110" stroke-linejoin="round" stroke-linecap="round"/>
		<path id="Vector" d="M425.83 490.16C425.47 493.72 424.23 497.06 420.67 499.15C418.3 500.55 414.93 501.38 410.1 501.34C398.04 501.18 375.37 492.56 375.37 492.56L354.14 480.82L365.18 463.35L368.2 458.6L376.01 460.36C376.01 460.36 382.47 464.02 388.97 466.94C395.47 469.86 411.25 470.5 416.82 474.97C422.38 479.44 426.44 484.31 425.83 490.16Z" fill="#F13939" fill-opacity="1.000000" fill-rule="nonzero"/>
		<path id="Vector" d="M425.83 490.16C425.47 493.72 424.23 497.06 420.67 499.15C421.7 495.66 421.49 491.91 420.08 488.55C417.71 483.23 409.99 478.53 399.83 477.75C389.68 476.96 381.91 472.22 377.85 470.1C374.67 468.45 367.97 464.84 365.18 463.35L368.2 458.6L376.01 460.36C376.01 460.36 382.47 464.02 388.97 466.94C395.47 469.86 411.25 470.5 416.82 474.97C422.38 479.44 426.44 484.31 425.83 490.16Z" fill="#FFFFFF" fill-opacity="1.000000" fill-rule="nonzero"/>
		<path id="Vector" d="M358.85 484.12C374.13 493 391.02 498.77 408.54 501.09C412.41 501.55 416.9 501.62 419.49 498.72C420.17 497.88 420.69 496.91 420.99 495.87C421.3 494.83 421.39 493.73 421.26 492.66C420.8 487.2 416.21 482.88 411.18 480.71C406.15 478.54 400.62 478.04 395.27 476.85C389.95 475.65 384.81 473.76 379.97 471.25C376.13 469.24 372.41 466.81 368.18 465.91C363.95 465.01 358.9 466.1 356.64 469.8" stroke="#263238" stroke-opacity="1.000000" stroke-width="1.103110" stroke-linejoin="round" stroke-linecap="round"/>
		<path id="Vector" d="M418.06 500.2C420.05 499.25 421.79 497.84 423.14 496.1C424.48 494.36 425.41 492.33 425.83 490.16C426.6 485.03 423.67 479.86 419.56 476.7C415.44 473.55 410.28 472.05 405.19 471C400.11 469.94 394.9 469.23 390.03 467.3C382.59 464.38 375.25 458.64 367.49 460.69" stroke="#263238" stroke-opacity="1.000000" stroke-width="1.103110" stroke-linejoin="round" stroke-linecap="round"/>
		<path id="Vector" d="M382.8 300.37L346.88 286.71L346.43 286.53C346.43 286.53 346.56 285.58 346.67 284.16C346.89 281.29 347.01 276.62 345.66 275.04C343.65 272.67 337.98 274.66 332.45 272.12C326.91 269.58 316.67 274.13 316.67 274.13C316.67 274.13 309.27 272.76 306 278.1C304.34 282.41 304.91 288.77 304.91 288.77L304.23 289.01C299.95 290.61 276.66 299.38 271.73 302.9C266.29 306.75 260.26 346.33 258.33 357.96C256.4 369.58 252.96 380.05 254.7 384.05C256.45 388.05 281.47 407.32 295.87 412.29C310.27 417.26 361.32 415.85 361.32 415.85C361.32 415.85 362.15 415.62 363.64 415.15C372.27 412.37 402.91 400.91 419.17 374.02C419.19 374.06 403.44 322.43 382.8 300.37ZM285.74 366.95C283.1 368.82 284.55 376.08 284.55 376.08L280.06 372.12L291.35 344.35L296.17 365.7C296.17 365.7 288.39 365.08 285.74 366.95ZM376.07 384.58C374.82 385.22 379.62 371.88 377.35 368.86C375.07 365.83 368.2 366.12 368.2 366.12L368.78 362.47L372.85 341.6L374.2 340C374.2 340 388.18 363.95 390.68 372.39C390.68 372.41 375.45 384.58 376.07 384.58Z" fill="#F13939" fill-opacity="1.000000" fill-rule="nonzero"/>
		<path id="Vector" d="M314.98 213.78L296.43 233.47C296.43 233.47 293.88 235.73 294.88 241.44C295.89 247.14 298.26 252.11 300.06 252.45C301.47 252.69 302.91 252.82 304.35 252.83C304.35 252.83 308.32 261.44 311.14 264.82C311.14 264.82 312.12 278.11 311.6 281.8C311.6 281.8 318.26 287.62 324.53 288.36C330.81 289.09 340.5 279.49 340.5 279.49L342.87 267.72C342.87 267.72 348.56 259.09 348.94 256.79C349.32 254.49 351.93 255.08 353.21 253.94C354.49 252.8 357.45 247.74 357.96 242.95C358.47 238.15 358.48 232.65 352.92 234.26C348.09 232.97 351.11 222.77 351.11 222.77L342.63 215.3L314.98 213.78Z" fill="#FFFFFF" fill-opacity="1.000000" fill-rule="nonzero"/>
		<g opacity="0.500000">
			<path id="Vector" d="M346.88 286.71C346.6 287.44 346.28 288.16 345.92 288.86C342.86 294.62 329.53 305.62 329.53 305.62L325.5 293.22L323.29 305.62C318.84 303.67 305.27 291.92 305.27 291.92C305.27 291.92 304.81 290.81 304.25 289.09L304.93 288.86C304.93 288.86 304.36 282.44 306.02 278.18C309.27 272.85 316.69 274.21 316.69 274.21C316.69 274.21 326.93 269.67 332.47 272.2C338.01 274.74 343.68 272.77 345.68 275.12C347.69 277.47 346.45 286.58 346.45 286.58L346.88 286.71Z" fill="#FFFFFF" fill-opacity="1.000000" fill-rule="nonzero"/>
		</g>
		<g opacity="0.200000">
			<path id="Vector" d="M382.8 300.37L346.88 286.71L346.43 286.53C346.43 286.53 346.56 285.58 346.67 284.16L345.92 288.82L340.6 296.03C346.28 298.12 351.83 300.56 357.21 303.34C359.78 304.72 361.88 306.84 363.24 309.43C364.59 312.02 365.14 314.95 364.8 317.86L358.18 374.49L355.47 406.64L363.66 415.15C372.29 412.37 402.93 400.91 419.19 374.02C419.19 374.06 403.44 322.43 382.8 300.37ZM376.07 384.58C374.82 385.22 379.62 371.88 377.35 368.86C375.07 365.83 368.2 366.12 368.2 366.12L368.78 362.48L372.85 341.6L374.2 340C374.2 340 388.18 363.95 390.68 372.39C390.68 372.41 375.45 384.58 376.07 384.58Z" fill="#000000" fill-opacity="1.000000" fill-rule="nonzero"/>
		</g>
		<g opacity="0.200000">
			<path id="Vector" d="M298.55 368.86L292.96 350.19C292.96 350.19 282.94 316.02 276.07 307.6L277.88 331.63C277.88 331.63 271.95 360.33 266.53 368.86C261.11 377.38 259.9 379.53 266.53 379.53C273.16 379.53 289.3 392.39 289.3 392.39L288.05 381.71L298.55 368.86ZM284.47 376.08L279.98 372.12L291.27 344.35L296.08 365.7C296.08 365.7 288.35 365.12 285.7 366.98C283.06 368.84 284.47 376.08 284.47 376.08Z" fill="#000000" fill-opacity="1.000000" fill-rule="nonzero"/>
		</g>
		<path id="Vector" d="M311.14 264.82C311.14 264.82 312.16 274.89 311.14 279.49" stroke="#263238" stroke-opacity="1.000000" stroke-width="1.103110" stroke-linejoin="round" stroke-linecap="round"/>
		<path id="Vector" d="M341.53 278.14C341.54 274.9 341.91 271.67 342.64 268.52" stroke="#263238" stroke-opacity="1.000000" stroke-width="1.103110" stroke-linejoin="round" stroke-linecap="round"/>
		<path id="Vector" d="M344.22 221.29C344.22 221.29 350.32 228.94 350 234.73C349.68 240.51 349.23 247.37 349.38 254.08C349.54 260.79 338.6 274.86 332.98 276.11C327.36 277.35 322.52 277.67 318.92 274.08C315.33 270.49 311.74 265.49 307.06 259.09C302.39 252.68 303.51 238.63 303.51 238.63" stroke="#263238" stroke-opacity="1.000000" stroke-width="1.103110" stroke-linejoin="round" stroke-linecap="round"/>
		<path id="Vector" d="M329.54 243.98C329.17 246.08 329.01 248.21 329.07 250.35C328.94 252.14 329.5 253.92 330.63 255.33C331.31 256.01 332.28 256.57 332.41 257.52C332.41 257.95 332.29 258.37 332.07 258.73C331.85 259.1 331.53 259.4 331.15 259.6C330.39 259.98 329.66 260.42 328.96 260.9" stroke="#263238" stroke-opacity="1.000000" stroke-width="1.103110" stroke-linejoin="round" stroke-linecap="round"/>
		<path id="Vector" d="M319.9 261.64C319.9 261.64 320.6 266.18 326.68 267.13" stroke="#263238" stroke-opacity="1.000000" stroke-width="1.103110" stroke-linejoin="round" stroke-linecap="round"/>
		<path id="Vector" d="M320.53 247.44C320.53 248.76 319.96 249.81 319.26 249.81C318.56 249.81 317.99 248.76 317.99 247.44C317.99 246.12 318.56 245.07 319.26 245.07C319.96 245.07 320.53 246.14 320.53 247.44Z" fill="#263238" fill-opacity="1.000000" fill-rule="nonzero"/>
		<path id="Vector" d="M338.68 248.01C338.68 249.33 338.11 250.38 337.41 250.38C336.71 250.38 336.15 249.31 336.15 248.01C336.15 246.7 336.71 245.64 337.41 245.64C338.11 245.64 338.68 246.69 338.68 248.01Z" fill="#263238" fill-opacity="1.000000" fill-rule="nonzero"/>
		<path id="Vector" d="M335.02 242.26C335.02 242.26 340.95 236.33 345.92 242.95" stroke="#263238" stroke-opacity="1.000000" stroke-width="2.206210" stroke-linejoin="round" stroke-linecap="round"/>
		<path id="Vector" d="M322.53 242.38C322.53 242.38 318.78 238.18 312.88 242.38" stroke="#263238" stroke-opacity="1.000000" stroke-width="2.206210" stroke-linejoin="round" stroke-linecap="round"/>
		<path id="Vector" d="M311.6 270.41C311.6 270.41 315.21 280.38 323.29 283.21C331.37 286.05 342.09 271.35 342.09 271.35L341.53 269.44C341.53 269.44 334.5 278.57 326.68 277.02C318.87 275.47 311.14 264.86 311.14 264.86L311.6 270.41Z" fill="#263238" fill-opacity="1.000000" fill-rule="nonzero"/>
		<path id="Vector" d="M304.35 252.45C304.35 252.45 299.53 254.14 298.25 250.39C296.97 246.65 292.58 236.77 296.43 233.47C300.27 230.17 303.35 237.82 303.35 237.82" stroke="#263238" stroke-opacity="1.000000" stroke-width="1.103110" stroke-linejoin="round" stroke-linecap="round"/>
		<path id="Vector" d="M349.37 254.49C349.37 254.49 353.84 255.39 355.12 251.64C356.4 247.89 360.79 238.01 356.95 234.71C353.11 231.42 350.02 239.07 350.02 239.07" stroke="#263238" stroke-opacity="1.000000" stroke-width="1.103110" stroke-linejoin="round" stroke-linecap="round"/>
		<path id="Vector" d="M303.35 247.44C305.03 247.18 306.53 246.29 307.57 244.95C308.21 243.78 308.61 242.49 308.76 241.17C309.2 238.64 309.42 236.09 309.42 233.53C309.37 232.53 309.46 231.53 309.7 230.55C310.05 229.57 310.6 228.67 311.31 227.91C312.98 225.94 315.01 224.28 316.61 222.24C317.47 221.27 318.12 220.15 318.53 218.92C318.94 217.7 319.09 216.41 318.98 215.12C322.65 218.15 326.94 220.33 331.54 221.52C336.15 222.71 340.96 222.88 345.63 222.01C354.11 220.35 362.24 212.91 361.25 203.57C361.07 202 360.4 200.53 359.33 199.37C358.27 198.2 356.87 197.4 355.32 197.07C351.14 196.03 347.38 198.26 343.58 199.69C336.67 202.3 329.9 197.82 322.91 197.07C316.98 196.42 309.59 197.16 306.48 203.11C306.48 203.11 295.81 204.36 291.07 213.19C286.32 222.01 295.3 234.22 295.3 234.22C295.3 234.22 298.86 229.85 303.52 238.68L303.35 247.44Z" fill="#263238" fill-opacity="1.000000" fill-rule="nonzero"/>
		<path id="Vector" d="M344.96 219.03C344.96 219.03 342.18 233.5 349.43 240.51C349.43 240.51 351.02 236.16 352.62 235.09C353.77 232.53 354.26 229.71 354.04 226.9C353.82 224.1 352.89 221.39 351.35 219.03C345.99 210.61 344.96 219.03 344.96 219.03Z" fill="#263238" fill-opacity="1.000000" fill-rule="nonzero"/>
		<g opacity="0.200000">
			<path id="Vector" d="M358.17 202.57C357.53 204.55 356.45 206.35 355.02 207.84C353.58 209.34 351.82 210.48 349.87 211.19C339.81 215.3 330.05 210.76 319.97 209.87C311.75 209.13 302.68 216.56 302.1 225" stroke="#FFFFFF" stroke-opacity="1.000000" stroke-width="1.103110" stroke-linejoin="round" stroke-linecap="round"/>
		</g>
		<g opacity="0.200000">
			<path id="Vector" d="M295.89 222.77C296.01 219.44 297.08 216.21 298.97 213.46C300.87 210.72 303.5 208.56 306.57 207.26" stroke="#FFFFFF" stroke-opacity="1.000000" stroke-width="1.103110" stroke-linejoin="round" stroke-linecap="round"/>
		</g>
		<path id="Vector" d="M308.82 278.14C313.24 282.74 318.58 286.38 324.49 288.81C324.49 288.81 336.52 285.31 342.64 276.95" stroke="#263238" stroke-opacity="1.000000" stroke-width="1.103110" stroke-linejoin="round" stroke-linecap="round"/>
		<path id="Vector" d="M321.12 257.1C315.78 259.55 309.45 257.2 307 251.86C304.55 246.51 306.89 240.19 312.24 237.74C317.59 235.28 323.91 237.63 326.36 242.98C328.81 248.32 326.47 254.65 321.12 257.1Z" stroke="#263238" stroke-opacity="1.000000" stroke-width="1.103110" stroke-linejoin="round"/>
		<path id="Vector" d="M341.76 258.04C335.92 258.75 330.61 254.6 329.89 248.76C329.17 242.92 333.33 237.61 339.16 236.89C345 236.18 350.32 240.33 351.03 246.17C351.75 252 347.6 257.32 341.76 258.04Z" stroke="#263238" stroke-opacity="1.000000" stroke-width="1.103110" stroke-linejoin="round"/>
		<path id="Vector" d="M311.14 274.16C310.07 274.45 309.05 274.94 308.17 275.63C307.29 276.31 306.55 277.16 306.01 278.14C304.12 281.46 305.26 291.91 305.26 291.91C305.26 291.91 315 301.54 323.29 305.6L325.73 291.86L329.53 305.6C329.53 305.6 342.36 296.53 345.92 288.86C345.92 288.86 347.1 279.9 345.92 277C345.65 276.19 345.14 275.49 344.45 274.98C343.76 274.48 342.94 274.2 342.09 274.19" stroke="#263238" stroke-opacity="1.000000" stroke-width="1.103110" stroke-linejoin="round" stroke-linecap="round"/>
		<path id="Vector" d="M295.89 366.13C295.89 366.13 292.09 340.63 287.02 330.23" stroke="#263238" stroke-opacity="1.000000" stroke-width="1.103110" stroke-linejoin="round" stroke-linecap="round"/>
		<path id="Vector" d="M276.07 307.6C279.02 311.79 281.66 316.19 283.95 320.77" stroke="#263238" stroke-opacity="1.000000" stroke-width="1.103110" stroke-linejoin="round" stroke-linecap="round"/>
		<path id="Vector" d="M376.07 326.63C377.09 322.37 378.49 318.21 380.25 314.19" stroke="#263238" stroke-opacity="1.000000" stroke-width="1.103110" stroke-linejoin="round" stroke-linecap="round"/>
		<path id="Vector" d="M368.2 366.13C368.2 366.13 370.94 348.65 374.22 334.25" stroke="#263238" stroke-opacity="1.000000" stroke-width="1.103110" stroke-linejoin="round" stroke-linecap="round"/>
		<path id="Vector" d="M372.85 341.58C375.5 338.07 379.22 335.52 383.45 334.32" stroke="#263238" stroke-opacity="1.000000" stroke-width="1.103110" stroke-linejoin="round" stroke-linecap="round"/>
		<path id="Vector" d="M346.44 286.53C346.44 286.53 368.54 295.37 382.8 300.39C382.8 300.39 400.36 316.88 419.18 374.06C419.18 374.06 401.93 403.07 369.13 412.37" stroke="#263238" stroke-opacity="1.000000" stroke-width="1.103110" stroke-linejoin="round" stroke-linecap="round"/>
		<path id="Vector" d="M374.82 385.61L390.68 372.41C390.68 372.41 399.06 366.05 407.78 370.4" stroke="#263238" stroke-opacity="1.000000" stroke-width="1.103110" stroke-linejoin="round" stroke-linecap="round"/>
		<path id="Vector" d="M374.22 340C374.22 340 387.32 359.37 390.68 372.41" stroke="#263238" stroke-opacity="1.000000" stroke-width="1.103110" stroke-linejoin="round" stroke-linecap="round"/>
		<path id="Vector" d="M284.65 376.81L280.01 372.41C280.01 372.41 273.13 371.23 265.33 376.43" stroke="#263238" stroke-opacity="1.000000" stroke-width="1.103110" stroke-linejoin="round" stroke-linecap="round"/>
		<path id="Vector" d="M280.01 372.41C280.01 372.41 285.78 353.44 291.46 343.72" stroke="#263238" stroke-opacity="1.000000" stroke-width="1.103110" stroke-linejoin="round" stroke-linecap="round"/>
		<path id="Vector" d="M304.93 288.86C304.93 288.86 273.13 300.79 270.01 304.28C266.89 307.76 255.05 374.48 254.73 382.12C254.45 388.95 279.22 404.28 291.49 410.75" stroke="#263238" stroke-opacity="1.000000" stroke-width="1.103110" stroke-linejoin="round" stroke-linecap="round"/>
		<path id="Vector" d="M328.71 311.4C328.71 311.82 328.59 312.22 328.36 312.57C328.12 312.92 327.8 313.18 327.41 313.34C327.03 313.5 326.61 313.54 326.2 313.46C325.79 313.38 325.42 313.18 325.13 312.89C324.83 312.59 324.63 312.22 324.55 311.81C324.47 311.41 324.51 310.98 324.67 310.6C324.83 310.22 325.1 309.89 325.44 309.66C325.79 309.43 326.19 309.3 326.61 309.3C326.89 309.3 327.16 309.36 327.42 309.46C327.67 309.57 327.9 309.72 328.1 309.92C328.29 310.11 328.45 310.34 328.55 310.6C328.66 310.85 328.71 311.13 328.71 311.4Z" fill="#263238" fill-opacity="1.000000" fill-rule="nonzero"/>
		<path id="Vector" d="M365.5 423.15L293.15 423.15C292.7 423.15 292.27 422.97 291.95 422.66C291.64 422.34 291.46 421.91 291.46 421.46C291.46 421.01 291.64 420.58 291.95 420.26C292.27 419.94 292.7 419.76 293.15 419.76L365.5 419.76C365.95 419.76 366.38 419.94 366.7 420.26C367.02 420.58 367.19 421.01 367.19 421.46C367.19 421.91 367.02 422.34 366.7 422.66C366.38 422.97 365.95 423.15 365.5 423.15Z" fill="#263238" fill-opacity="1.000000" fill-rule="nonzero"/>
		<path id="Vector" d="M368.04 417.48L377.73 371.94C377.88 371.23 377.87 370.5 377.7 369.8C377.53 369.1 377.21 368.44 376.75 367.88C376.3 367.32 375.72 366.87 375.07 366.56C374.42 366.25 373.7 366.09 372.98 366.09L288.42 366.09C287.7 366.09 287 366.25 286.35 366.56C285.7 366.86 285.13 367.31 284.68 367.86C284.23 368.42 283.9 369.07 283.73 369.76C283.55 370.45 283.54 371.18 283.68 371.88L292.37 415.91C292.58 416.99 293.16 417.96 294 418.67C294.85 419.38 295.91 419.78 297.01 419.81L363.17 421.33C364.31 421.35 365.41 420.98 366.3 420.28C367.18 419.58 367.8 418.59 368.04 417.48Z" fill="#FFFFFF" fill-opacity="1.000000" fill-rule="nonzero"/>
		<path id="Vector" d="M377.73 371.94C377.88 371.23 377.87 370.5 377.7 369.8C377.53 369.1 377.21 368.44 376.75 367.88C376.3 367.32 375.72 366.87 375.07 366.56C374.42 366.25 373.7 366.09 372.98 366.09L288.42 366.09C287.7 366.09 287 366.25 286.35 366.56C285.7 366.86 285.13 367.31 284.68 367.86C284.23 368.42 283.9 369.07 283.73 369.76C283.55 370.45 283.54 371.18 283.68 371.88L292.37 415.91C292.58 416.99 293.16 417.96 294 418.67C294.85 419.38 295.91 419.78 297.01 419.81L363.17 421.33C364.31 421.35 365.41 420.98 366.3 420.28C367.18 419.58 367.8 418.59 368.04 417.48L377.73 371.94Z" stroke="#263238" stroke-opacity="1.000000" stroke-width="1.103110" stroke-linejoin="round"/>
		<path id="Vector" d="M337.18 392.38C337.17 393.71 336.78 395.01 336.03 396.12C335.29 397.23 334.24 398.09 333 398.6C331.77 399.11 330.41 399.24 329.11 398.98C327.8 398.72 326.6 398.08 325.65 397.13C324.71 396.19 324.07 394.98 323.81 393.68C323.55 392.37 323.68 391.01 324.2 389.78C324.71 388.55 325.57 387.49 326.68 386.75C327.79 386.01 329.09 385.61 330.43 385.61C331.32 385.61 332.19 385.79 333.01 386.13C333.83 386.47 334.58 386.97 335.2 387.6C335.83 388.22 336.33 388.97 336.67 389.79C337.01 390.61 337.18 391.49 337.18 392.38Z" fill="#263238" fill-opacity="1.000000" fill-rule="nonzero"/>
		<path id="Vector" d="M350.45 370.45L360.49 370.45" stroke="#263238" stroke-opacity="1.000000" stroke-width="1.103110" stroke-linejoin="round" stroke-linecap="round"/>
		<path id="Vector" d="M302.47 370.45L340.6 370.45" stroke="#263238" stroke-opacity="1.000000" stroke-width="1.103110" stroke-linejoin="round" stroke-linecap="round"/>
		<path id="Vector" d="M368.2 465.84L360.49 486.07C360.49 486.07 340.83 481.12 315.65 475.96C289.31 470.56 261.81 463.57 247.54 438.54C245.81 435.49 244.65 431.88 245.46 428.47C247.52 419.82 258.77 417.47 266.18 416.61C270.84 416.1 275.53 415.84 280.21 415.82C282.59 415.82 290.47 414.53 292.38 415.94C295.25 418.04 298.31 419.85 301.53 421.36C305.74 423.15 367.19 419.76 367.19 419.76C368.26 417.43 368.92 414.93 369.13 412.37C378.79 407.46 401.15 403.31 410.64 405.15C425.5 408.03 434.17 416.7 432.52 425.79C430.87 434.87 398.04 459.23 368.2 465.84Z" fill="#263238" fill-opacity="1.000000" fill-rule="nonzero"/>
		<path id="Vector" d="M368.2 465.84C368.2 465.84 349.5 460.88 334.22 450.56C318.95 440.24 307.02 428.27 285.73 430.74" stroke="#FFFFFF" stroke-opacity="1.000000" stroke-width="1.103110" stroke-linejoin="round" stroke-linecap="round"/>
		<path id="Vector" d="M330.73 448.13C340.38 445.36 347.46 439.11 355.2 433.12C363.37 426.56 372.15 420.79 381.4 415.89" stroke="#FFFFFF" stroke-opacity="1.000000" stroke-width="1.103110" stroke-linejoin="round" stroke-linecap="round"/>
		<path id="Vector" d="M327.32 249.12L330.16 249.12" stroke="#263238" stroke-opacity="1.000000" stroke-width="1.103110" stroke-linejoin="round" stroke-linecap="round"/>
	</g>
</svg>
