<svg width="1988.849609" height="468.482178" viewBox="0 0 1988.85 468.482" fill="none" xmlns="http://www.w3.org/2000/svg" xmlns:xlink="http://www.w3.org/1999/xlink">
	<desc>
			Created with Pixso.
	</desc>
	<defs/>
	<g opacity="0.300000">
		<path id="Vector" d="M761 468.48C753.9 468.48 746.98 468.09 740.34 467.33C726.4 465.73 713.53 462.44 702.07 457.55C689.76 452.3 678.96 445.15 669.97 436.29C651.9 418.48 642.87 397.15 634.12 376.53C632.41 372.48 630.63 368.29 628.83 364.23C616.53 336.54 600.94 312.28 581.16 290.07C541.72 245.77 486.25 207.97 420.75 180.74C345 149.25 263.55 133.57 191.42 136.58C149.02 138.35 93 155.16 67.96 183.88C53.1 200.92 51.9 219.84 64.5 238.57L64.25 238.65C57.64 228.83 54.77 218.98 55.7 209.37C56.55 200.57 60.6 191.95 67.72 183.78C79.05 170.78 97.74 159.26 121.77 150.46C143.97 142.33 168.7 137.33 191.4 136.39C229.15 134.82 269.3 138.31 310.74 146.76C348.3 154.43 385.36 165.81 420.9 180.58C486.44 207.82 541.94 245.65 581.4 289.97C601.18 312.19 616.78 336.47 629.09 364.17C630.9 368.24 632.67 372.42 634.39 376.47C643.12 397.08 652.15 418.39 670.2 436.17C687.64 453.37 711.26 463.79 740.38 467.14C780.72 471.78 829.7 462.08 871.4 441.19C931.5 411.09 973.21 367.28 1013.56 324.91C1020.63 317.48 1027.93 309.8 1035.17 302.39C1053.97 283.13 1079.42 258.18 1109.66 235.96C1140.56 213.23 1171.99 196.54 1205.69 184.92C1226.34 177.81 1248.21 173.01 1270.69 170.68C1291.48 168.52 1313.47 168.38 1336.07 170.28C1374.83 173.52 1416.59 182.7 1463.73 198.33C1556.56 229.1 1649.29 266.44 1739.34 309.34C1824.94 350.1 1908.88 396.23 1988.85 446.44L1988.66 446.58C1822.9 342.5 1646.25 259.03 1463.61 198.5C1360.43 164.29 1278.52 160.03 1205.82 185.09C1131.88 210.58 1080.21 256.58 1035.4 302.49C1028.17 309.91 1020.86 317.59 1013.79 325.01C973.43 367.39 931.71 411.22 871.57 441.34C852.14 451.07 830.27 458.67 808.35 463.29C796.76 465.74 785.25 467.34 774.12 468.05C769.68 468.34 765.31 468.48 761 468.48Z" fill="#B5B0CA" fill-opacity="1.000000" fill-rule="nonzero"/>
		<path id="Vector" d="M767.95 457.92C749.83 457.92 733.05 455.55 718.06 450.88C701.33 445.67 686.9 437.6 675.16 426.9C674.13 425.95 673.1 424.97 672.1 423.98C654.23 406.25 644.79 385.21 635.66 364.85C633.82 360.74 631.91 356.48 629.97 352.35C618.45 327.77 604.58 306.1 587.55 286.11C585.46 283.65 583.28 281.18 581.09 278.78C541.07 234.86 485.15 197.54 419.38 170.83C343.08 139.88 261.41 124.85 189.4 128.5C147.31 130.65 91.54 147.74 66.4 176.24C51.34 193.3 49.64 212.26 61.47 231.05L61.21 231.12C55.01 221.27 52.47 211.4 53.65 201.79C54.73 192.96 58.94 184.33 66.16 176.14C77.61 163.17 96.25 151.63 120.05 142.79C142.04 134.61 166.66 129.47 189.37 128.31C227.08 126.4 267.27 129.56 308.84 137.69C346.49 145.06 383.73 156.15 419.52 170.67C485.33 197.39 541.28 234.74 581.33 278.68C583.52 281.09 585.69 283.55 587.79 286.02C604.82 306.02 618.7 327.7 630.23 352.29C632.17 356.42 634.08 360.68 635.92 364.79C645.05 385.14 654.48 406.17 672.33 423.88C673.32 424.86 674.35 425.84 675.38 426.79C699.64 448.92 732.98 457.92 768.03 457.92C768.22 457.92 768.41 457.92 768.61 457.92C768.39 457.92 768.17 457.92 767.95 457.92ZM775.42 457.79C808.01 456.64 841.64 448.05 870.49 435.27C932.72 407.58 977.44 364.83 1020.7 323.48C1022.48 321.77 1024.26 320.07 1026.04 318.37C1029.94 314.64 1034.59 310.22 1039.31 305.76C1060.55 285.79 1086.24 262.54 1115.82 241.62C1147.31 219.35 1178.76 202.83 1211.98 191.11C1232.38 183.91 1253.94 178.84 1276.07 176.04C1296.59 173.44 1318.25 172.71 1340.48 173.86C1378.87 175.84 1420.15 183.37 1466.68 196.87C1512.04 210.01 1549.34 222.38 1584.03 235.8C1633.19 254.82 1680.01 276.75 1719.34 295.68C1810.75 339.83 1900.45 389.96 1985.93 444.68L1985.75 444.82C1900.27 390.1 1810.58 339.98 1719.18 295.84C1679.86 276.9 1633.05 254.98 1583.9 235.96C1549.21 222.55 1511.93 210.18 1466.58 197.05C1365.22 167.64 1284.35 165.8 1212.1 191.28C1137.11 217.74 1083.71 264.31 1039.54 305.88C1034.81 310.33 1030.17 314.75 1026.26 318.49C1024.48 320.18 1022.7 321.89 1020.92 323.59C977.65 364.95 932.91 407.72 870.64 435.43C855.2 442.27 838.77 447.7 821.8 451.58C806.01 455.18 790.44 457.26 775.42 457.79Z" fill="#B5B0CA" fill-opacity="1.000000" fill-rule="nonzero"/>
		<path id="Vector" d="M775.6 447.6C773.43 447.6 771.26 447.57 769.11 447.5C751.01 446.95 734.26 444.1 719.33 439.03C703 433.48 688.85 425.26 677.28 414.6C676.25 413.65 675.22 412.67 674.24 411.68C656.56 394.04 646.73 373.27 637.23 353.19C635.24 349.01 633.19 344.68 631.12 340.48C619.03 315.97 604.78 294.48 587.58 274.76C585.45 272.32 583.24 269.88 581.02 267.5C540.42 223.96 484.05 187.11 418.01 160.93C341.17 130.52 259.26 116.13 187.38 120.42C146.9 122.87 91.3 138.99 64.87 168.57C49.59 185.67 47.37 204.67 58.43 223.53L58.18 223.6C52.38 213.72 50.17 203.83 51.6 194.19C52.91 185.34 57.3 176.69 64.63 168.48C76.2 155.53 94.77 143.99 118.35 135.11C140.14 126.89 164.65 121.61 187.35 120.23C225.01 117.99 265.25 120.81 306.95 128.62C344.69 135.69 382.1 146.5 418.15 160.77C484.22 186.96 540.62 223.83 581.25 267.4C583.47 269.78 585.68 272.23 587.81 274.67C605.03 294.4 619.28 315.9 631.37 340.42C633.45 344.62 635.5 348.95 637.48 353.14C646.98 373.21 656.81 393.96 674.46 411.58C675.45 412.57 676.47 413.55 677.49 414.49C724.52 457.82 807.85 453.17 869.57 429.34C934.4 404.1 982.57 362.14 1029.17 321.57L1029.64 321.15C1034.16 317.22 1038.81 313.16 1043.47 309.14C1092.47 266.8 1146.34 223.28 1218.25 197.29C1238.43 190.01 1259.71 184.66 1281.47 181.4C1301.71 178.36 1323.05 177.03 1344.89 177.44C1382.98 178.14 1423.78 184.02 1469.63 195.41C1517.82 207.33 1554.09 218.29 1587.22 230.94C1634.42 249 1680.14 271.83 1720.48 291.97C1810.3 337.05 1898.63 387.83 1983.02 442.91L1982.83 443.04C1898.45 387.97 1810.13 337.2 1720.32 292.12C1679.99 271.98 1634.27 249.16 1587.08 231.1C1553.97 218.45 1517.71 207.5 1469.54 195.58C1370.15 170.91 1290.34 171.5 1218.38 197.45C1146.51 223.43 1092.67 266.92 1043.68 309.25C1039.04 313.27 1034.37 317.34 1029.86 321.27L1029.38 321.68C1006.16 341.9 982.15 362.81 956.23 381.48C927.09 402.47 898.79 418.17 869.7 429.5C839.27 441.25 806.12 447.6 775.6 447.6Z" fill="#B5B0CA" fill-opacity="1.000000" fill-rule="nonzero"/>
		<path id="Vector" d="M1979.92 441.26C1896.63 385.84 1809.68 334.41 1721.47 288.4C1717.73 286.47 1713.99 284.52 1710.23 282.57C1672.03 262.73 1632.52 242.22 1590.27 226.24C1549.28 210.78 1507.74 201.33 1472.51 194.12C1375.27 174.1 1296.51 177.12 1224.66 203.63C1150.9 230.92 1093.75 276.22 1047.82 312.63C1045.06 314.82 1042.31 317 1039.56 319.19C1037.53 320.81 1035.49 322.43 1033.46 324.05C1007.31 344.8 983.52 363.35 957.24 380.28C927.22 399.61 898.28 413.78 868.77 423.58C841.12 432.76 811.57 437.62 784.09 437.62C779.09 437.62 774.15 437.46 769.31 437.13C751.61 435.94 735.22 432.6 720.61 427.2C704.66 421.3 690.79 412.93 679.38 402.31C678.36 401.35 677.35 400.37 676.36 399.38C658.9 381.83 648.68 361.35 638.81 341.55C636.68 337.29 634.48 332.88 632.25 328.6C619.59 304.17 604.98 282.85 587.6 263.41C585.44 260.99 583.2 258.56 580.94 256.2C539.76 213.05 482.94 176.68 416.63 151.02C339.25 121.15 257.11 107.41 185.35 112.33C136.3 115.77 86.14 135.73 63.37 160.87C47.85 178 45.1 197.06 55.41 215.99L55.15 216.06C49.75 206.15 47.87 196.22 49.56 186.57C51.11 177.68 55.68 169 63.13 160.77C74.82 147.86 93.34 136.32 116.67 127.4C138.26 119.15 162.64 113.73 185.33 112.15C222.95 109.56 263.23 112.05 305.05 119.54C342.89 126.31 380.48 136.85 416.77 150.86C483.12 176.53 539.97 212.92 581.18 256.1C583.43 258.46 585.67 260.89 587.84 263.31C605.22 282.76 619.84 304.09 632.52 328.53C634.74 332.81 636.94 337.22 639.07 341.49C648.94 361.28 659.15 381.74 676.59 399.27C677.57 400.26 678.59 401.24 679.61 402.19C728.69 447.88 812.13 442.17 868.65 423.4C936.1 401.01 987.71 360.06 1033.25 323.92C1035.29 322.3 1037.31 320.69 1039.36 319.07C1042.11 316.88 1044.86 314.69 1047.62 312.51C1073.82 291.73 1099.72 271.53 1128.18 252.92C1160.91 231.52 1192.43 215.34 1224.54 203.46C1244.51 196.09 1265.48 190.47 1286.87 186.75C1306.85 183.27 1327.86 181.34 1349.32 181.01C1387.16 180.42 1427.48 184.65 1472.6 193.94C1507.84 201.15 1549.4 210.61 1590.4 226.08C1632.67 242.06 1672.19 262.58 1710.4 282.42C1714.16 284.37 1717.9 286.32 1721.64 288.25C1809.86 334.26 1896.82 385.7 1980.11 441.13L1979.92 441.26Z" fill="#B5B0CA" fill-opacity="1.000000" fill-rule="nonzero"/>
		<path id="Vector" d="M1977.01 439.49C1893.25 382.65 1807.66 330.57 1722.62 284.68C1717.53 281.94 1712.32 279.11 1707.29 276.37C1671.23 256.78 1633.95 236.52 1593.45 221.38C1553.02 206.32 1511.13 198.41 1475.48 192.66C1380.61 177.2 1302.9 182.65 1230.93 209.8C1162.31 235.8 1108.54 274.89 1056.54 312.68L1050.82 316.83C1046.31 320.11 1041.66 323.5 1037.06 326.82C985 364.41 932.89 399.63 867.84 417.65C852.06 422.02 835.85 425.05 819.67 426.66C802.28 428.38 785.4 428.41 769.48 426.73C752.19 424.91 736.18 421.08 721.89 415.35C706.34 409.11 692.75 400.59 681.5 390.01C680.48 389.05 679.47 388.06 678.5 387.07C661.25 369.63 650.67 349.45 640.43 329.94C638.15 325.59 635.78 321.09 633.4 316.72C620.14 292.37 605.17 271.21 587.63 252.05C585.44 249.66 583.16 247.25 580.87 244.91C539.11 202.14 481.84 166.25 415.27 141.11C337.33 111.78 254.97 98.69 183.33 104.25C134.73 108.11 84.79 128.21 61.91 153.13C46.13 170.3 42.84 189.44 52.38 208.47L52.11 208.53C47.12 198.57 45.58 188.61 47.53 178.93C49.33 170 54.08 161.29 61.67 153.03C73.49 140.17 91.93 128.64 115.02 119.69C136.39 111.42 160.64 105.87 183.3 104.07C220.87 101.15 261.19 103.3 303.15 110.46C341.08 116.94 378.84 127.19 415.39 140.95C482.01 166.1 539.31 202.01 581.1 244.81C583.39 247.15 585.66 249.56 587.86 251.95C605.41 271.12 620.39 292.29 633.65 316.65C636.04 321.02 638.4 325.53 640.68 329.88C650.91 349.38 661.49 369.54 678.72 386.97C679.69 387.95 680.7 388.94 681.71 389.89C729.62 434.95 809.22 433.68 867.74 417.47C932.73 399.47 984.82 364.26 1036.85 326.7C1041.44 323.37 1046.12 319.99 1050.62 316.71L1056.34 312.56C1081.86 294 1108.25 274.82 1136.92 256.97C1169.38 236.75 1200.1 221.27 1230.81 209.64C1250.57 202.18 1271.25 196.28 1292.25 192.1C1311.99 188.18 1332.67 185.65 1353.73 184.58C1391.4 182.67 1431.25 185.26 1475.55 192.47C1511.21 198.23 1553.12 206.14 1593.58 221.21C1634.1 236.36 1671.39 256.62 1707.46 276.22C1712.49 278.96 1717.7 281.79 1722.78 284.53C1807.84 330.42 1893.43 382.51 1977.2 439.35L1977.01 439.49Z" fill="#B5B0CA" fill-opacity="1.000000" fill-rule="nonzero"/>
		<path id="Vector" d="M1974.09 437.71C1891.06 380.24 1806.83 327.51 1723.76 280.97C1717.52 277.47 1711.12 273.83 1704.93 270.32C1670.82 250.94 1635.55 230.89 1596.64 216.53C1556.39 201.72 1514.31 195.42 1478.46 191.2C1386.21 180.19 1309.55 188.06 1237.22 215.99C1174.1 240.46 1122.28 275.14 1072.16 308.67C1066.88 312.2 1061.43 315.85 1056.11 319.38C1049.87 323.54 1045.1 326.69 1040.66 329.61C1016.83 345.23 988.45 363.22 958.68 378.18C927.13 394.04 897.11 405.01 866.91 411.73C851.03 415.26 834.89 417.49 818.94 418.35C801.81 419.27 785.23 418.59 769.65 416.33C752.78 413.88 737.14 409.56 723.16 403.5C708.01 396.94 694.7 388.26 683.61 377.71C682.61 376.75 681.6 375.76 680.63 374.77C663.61 357.44 652.67 337.58 642.09 318.37C639.64 313.92 637.1 309.31 634.54 304.84C620.69 280.56 605.35 259.58 587.65 240.7C585.43 238.33 583.12 235.94 580.8 233.62C538.46 191.23 480.74 155.82 413.89 131.21C335.42 102.41 252.82 89.97 181.31 96.17C140.63 99.78 87.48 116.38 60.48 145.35C44.43 162.58 40.58 181.8 49.34 200.94L49.08 201C44.5 190.99 43.3 180.99 45.52 171.27C47.57 162.29 52.52 153.54 60.25 145.25C72.19 132.44 90.57 120.93 113.41 111.97C134.56 103.66 158.66 97.99 181.28 95.99C218.81 92.73 259.18 94.55 301.26 101.38C339.28 107.56 377.22 117.54 414.02 131.04C480.91 155.67 538.66 191.1 581.03 233.51C583.35 235.84 585.65 238.22 587.88 240.6C605.59 259.49 620.93 280.47 634.8 304.77C637.36 309.24 639.89 313.85 642.35 318.3C652.92 337.5 663.85 357.35 680.86 374.67C681.83 375.66 682.83 376.64 683.83 377.6C723.68 415.48 792.1 428.17 866.83 411.54C934.51 396.49 989.71 362.74 1040.47 329.47C1044.91 326.55 1049.68 323.4 1055.92 319.25C1061.24 315.71 1066.68 312.06 1071.96 308.53C1096.64 292.02 1122.15 274.95 1149.36 258.96C1180.14 240.89 1208.82 226.77 1237.09 215.82C1256.68 208.26 1277.05 202.08 1297.64 197.46C1317.15 193.08 1337.51 189.95 1358.15 188.16C1395.73 184.9 1435.1 185.83 1478.5 191.01C1514.38 195.23 1556.49 201.54 1596.77 216.35C1635.7 230.73 1670.98 250.78 1705.1 270.17C1711.29 273.68 1717.69 277.32 1723.94 280.82C1807.01 327.36 1891.24 380.1 1974.29 437.57L1974.09 437.71Z" fill="#B5B0CA" fill-opacity="1.000000" fill-rule="nonzero"/>
		<path id="Vector" d="M1971.18 435.94C1888.86 377.83 1806 324.44 1724.9 277.25C1718 273.24 1710.92 269.02 1704.07 264.95C1671.42 245.54 1637.67 225.47 1599.82 211.67C1559.54 197.04 1517.37 192.37 1481.43 189.74C1393.36 183.11 1315.53 193.71 1243.5 222.16C1186.15 244.92 1136.98 275.36 1089.43 304.8C1079.82 310.75 1069.9 316.9 1060.25 322.76C1054.34 326.35 1049.11 329.5 1044.25 332.39C1021.63 345.83 991.54 363.05 959.39 377.13C927.08 391.28 896.52 400.66 865.97 405.8C832.66 411.42 799.4 411.46 769.81 405.93C753.36 402.85 738.09 398.05 724.43 391.66C709.68 384.76 696.66 375.93 685.71 365.41C684.72 364.46 683.72 363.47 682.76 362.48C665.98 345.28 654.7 325.74 643.79 306.85C641.16 302.28 638.43 297.56 635.68 292.96C621.22 268.75 605.52 247.94 587.67 229.35C585.42 227 583.08 224.64 580.72 222.34C537.8 180.33 479.63 145.39 412.52 121.31C333.5 93.06 250.67 81.26 179.29 88.1C130.91 92.83 82.61 112.7 59.1 137.54C42.74 154.83 38.32 174.15 46.31 193.42L46.05 193.47C41.87 183.4 41.02 173.35 43.51 163.59C45.82 154.56 50.99 145.77 58.87 137.44C70.94 124.69 89.24 113.21 111.81 104.23C132.74 95.91 156.7 90.11 179.25 87.91C216.74 84.32 257.15 85.8 299.36 92.31C337.47 98.19 375.59 107.89 412.64 121.14C479.8 145.24 538 180.19 580.95 222.23C583.3 224.53 585.64 226.89 587.9 229.25C605.75 247.84 621.46 268.66 635.93 292.89C638.68 297.48 641.41 302.21 644.05 306.78C654.95 325.66 666.22 345.19 682.98 362.37C683.95 363.36 684.94 364.35 685.93 365.3C725.1 402.94 792.38 418.01 865.91 405.62C932.94 394.32 991.15 363.68 1044.06 332.25C1048.93 329.36 1054.16 326.21 1060.06 322.62C1069.72 316.76 1079.65 310.61 1089.25 304.67C1136.81 275.22 1185.98 244.77 1243.36 222C1262.77 214.34 1282.85 207.88 1303.03 202.82C1322.33 197.98 1342.36 194.25 1362.56 191.74C1400.13 187.07 1439.02 186.36 1481.45 189.55C1517.42 192.19 1559.63 196.86 1599.94 211.5C1637.82 225.32 1671.59 245.39 1704.25 264.81C1711.1 268.88 1718.18 273.09 1725.08 277.11C1806.19 324.3 1889.05 377.7 1971.37 435.81L1971.18 435.94Z" fill="#B5B0CA" fill-opacity="1.000000" fill-rule="nonzero"/>
		<path id="Vector" d="M1968.26 434.16C1886.68 375.42 1805.19 321.37 1726.05 273.53C1718.78 269.14 1711.3 264.48 1704.06 259.98C1672.61 240.41 1640.09 220.17 1603 206.81C1562.56 192.3 1520.35 189.3 1484.39 188.28C1399.66 185.68 1322.91 198.79 1249.78 228.34C1198.5 249.17 1152.78 275.52 1108.56 301.01C1093.36 309.78 1079 318.06 1064.39 326.14C1058.44 329.43 1053.04 332.38 1047.85 335.17C1014.33 353.15 986.45 366.15 960.09 376.08C927.03 388.53 895.94 396.32 865.04 399.88C853.06 401.26 841.11 401.95 829.39 401.95C808.6 401.95 788.49 399.79 769.97 395.52C736.46 387.79 708.82 373.52 687.82 353.11C686.83 352.15 685.85 351.16 684.89 350.17C668.37 333.12 656.77 313.93 645.56 295.37C642.72 290.67 639.78 285.81 636.82 281.08C621.75 256.92 605.67 236.29 587.7 218C585.41 215.66 583.04 213.32 580.65 211.04C537.15 169.42 478.53 134.96 411.15 111.4C331.59 83.69 248.53 72.54 177.27 80.01C128.7 85.21 81.79 104.7 57.77 129.68C41.08 147.04 36.07 166.47 43.29 185.89L43.02 185.94C39.25 175.8 38.75 165.68 41.54 155.87C44.11 146.79 49.5 137.94 57.54 129.57C69.74 116.89 87.97 105.45 110.26 96.48C130.97 88.14 154.75 82.23 177.23 79.83C214.67 75.9 255.13 77.05 297.47 83.23C335.67 88.81 373.96 98.23 411.27 111.23C478.7 134.81 537.34 169.28 580.88 210.93C583.26 213.21 585.64 215.55 587.93 217.89C605.91 236.19 621.99 256.83 637.08 281C640.04 285.73 642.97 290.59 645.81 295.29C657.02 313.85 668.61 333.03 685.12 350.06C686.07 351.05 687.06 352.04 688.05 353C727.27 391.11 791.76 408.13 865 399.69C934.71 391.66 996.46 362.49 1047.68 335.02C1052.87 332.23 1058.28 329.28 1064.22 325.99C1078.81 317.91 1093.18 309.63 1108.39 300.86C1152.61 275.37 1198.34 249.01 1249.64 228.18C1268.91 220.39 1288.68 213.66 1308.42 208.17C1327.53 202.85 1347.24 198.53 1366.98 195.31C1404.63 189.18 1443.04 186.82 1484.4 188.08C1520.39 189.11 1562.64 192.12 1603.13 206.64C1640.24 220.01 1672.78 240.26 1704.25 259.84C1711.48 264.34 1718.96 268.99 1726.23 273.39C1805.37 321.23 1886.87 375.28 1968.46 434.03L1968.26 434.16Z" fill="#B5B0CA" fill-opacity="1.000000" fill-rule="nonzero"/>
		<path id="Vector" d="M1965.35 432.38C1883.36 372.16 1805.46 318.98 1727.2 269.82C1719.73 265.12 1712.38 260.33 1704.59 255.26C1674.16 235.44 1642.7 214.94 1606.18 201.95C1565.23 187.45 1521.17 186.25 1487.36 186.81C1406.48 188 1330.82 203.6 1256.06 234.52C1211.21 253.16 1169.79 275.55 1129.74 297.2C1108.68 308.57 1088.81 319.32 1068.53 329.52C1062.51 332.55 1056.92 335.31 1051.43 337.96C1017.47 354.35 988.67 366.13 960.8 375.02C926.97 385.81 895.34 392 864.11 393.95C848.06 394.95 832.12 394.77 816.74 393.39C800.45 391.94 784.77 389.15 770.13 385.11C737.7 376.14 710.72 361.24 689.93 340.82C688.95 339.85 687.97 338.86 687.02 337.87C670.78 321 658.89 302.17 647.4 283.97C644.33 279.11 641.16 274.09 637.97 269.21C622.26 245.1 605.82 224.63 587.73 206.65C585.4 204.34 583 202.02 580.58 199.75C536.5 158.51 477.43 124.54 409.78 101.49C347.33 80.32 282.93 69.27 223.88 69.27C207.19 69.27 190.93 70.15 175.26 71.93C127.26 77.51 80.65 97.07 56.49 121.78C39.45 139.22 33.83 158.79 40.26 178.37L39.99 178.41C36.63 168.19 36.49 158.01 39.57 148.14C42.42 138.99 48.04 130.08 56.26 121.67C68.59 109.07 86.73 97.67 108.73 88.71C129.51 80.25 152.49 74.38 175.21 71.75C212.6 67.49 253.1 68.3 295.57 74.16C333.87 79.44 372.33 88.58 409.9 101.32C477.59 124.38 536.69 158.37 580.8 199.64C583.22 201.9 585.63 204.22 587.96 206.54C606.06 224.53 622.5 245.01 638.22 269.13C641.41 274.01 644.58 279.03 647.65 283.89C659.14 302.09 671.02 320.9 687.25 337.76C688.2 338.75 689.18 339.74 690.16 340.71C729.03 378.9 792.42 398.23 864.09 393.76C936.61 389.24 1002.23 361.48 1051.29 337.8C1056.77 335.15 1062.36 332.39 1068.37 329.36C1088.65 319.17 1108.53 308.42 1129.56 297.04C1169.63 275.39 1211.05 253 1255.92 234.36C1294.41 218.44 1332.19 206.84 1371.4 198.89C1409.22 191.22 1447.15 187.21 1487.36 186.62C1510.3 186.24 1529.02 186.91 1546.27 188.73C1568.54 191.09 1588.18 195.36 1606.31 201.78C1642.86 214.78 1674.34 235.29 1704.79 255.12C1712.57 260.19 1719.92 264.98 1727.39 269.67C1805.66 318.84 1883.56 372.02 1965.55 432.25L1965.35 432.38Z" fill="#B5B0CA" fill-opacity="1.000000" fill-rule="nonzero"/>
		<path id="Vector" d="M1962.44 430.61C1881.2 369.72 1804.63 315.91 1728.34 266.1C1720.79 261.17 1713.35 256.09 1705.47 250.72C1675.96 230.58 1645.43 209.75 1609.37 197.09C1568.08 182.66 1524.06 183.23 1490.34 185.35C1414.01 189.97 1339.43 208.07 1262.34 240.69C1224.36 256.85 1188.18 275.33 1153.22 293.21C1125.56 307.34 1099.46 320.69 1072.67 332.89C1066.62 335.65 1060.68 338.29 1055.04 340.73C1021 355.44 990.4 366.31 961.5 373.95C926.9 383.1 894.73 387.7 863.18 388.02C847.12 388.18 831.24 387.19 816 385.06C800.02 382.83 784.64 379.34 770.29 374.68C738.97 364.53 712.64 348.99 692.04 328.51C691.07 327.54 690.1 326.55 689.15 325.56C673.21 308.89 661.07 290.46 649.32 272.65C646 267.6 642.56 262.39 639.11 257.32C622.75 233.26 605.96 212.97 587.75 195.29C585.39 193 582.95 190.7 580.51 188.46C535.84 147.6 476.33 114.1 408.4 91.58C327.77 64.96 244.25 55.11 173.23 63.85C125.86 69.78 79.56 89.39 55.27 113.82C37.84 131.35 31.6 151.06 37.23 170.84L36.96 170.87C34.02 160.57 34.25 150.3 37.63 140.36C40.77 131.14 46.63 122.17 55.04 113.71C67.48 101.2 85.54 89.85 107.25 80.91C127.78 72.45 150.58 66.49 173.18 63.66C210.54 59.06 251.08 59.54 293.67 65.08C332.06 70.06 370.7 78.92 408.52 91.41C476.49 113.94 536.03 147.46 580.72 188.34C583.17 190.58 585.61 192.88 587.98 195.17C606.19 212.86 622.99 233.16 639.35 257.24C642.81 262.31 646.25 267.52 649.57 272.56C661.31 290.38 673.45 308.79 689.38 325.45C690.33 326.44 691.3 327.44 692.27 328.4C731.54 367.44 792.24 388.55 863.17 387.83C920.73 387.24 981.65 372.22 1054.89 340.57C1060.53 338.12 1066.46 335.48 1072.52 332.72C1099.3 320.53 1125.41 307.18 1153.05 293.05C1188.03 275.17 1224.19 256.68 1262.18 240.53C1301.06 224.08 1338.23 211.63 1375.81 202.46C1413.89 193.17 1451.34 187.51 1490.31 185.15C1524.08 183.04 1568.14 182.46 1609.49 196.91C1645.6 209.59 1676.14 230.43 1705.67 250.58C1713.55 255.95 1720.99 261.03 1728.53 265.95C1804.82 315.77 1881.4 369.58 1962.64 430.47L1962.44 430.61Z" fill="#B5B0CA" fill-opacity="1.000000" fill-rule="nonzero"/>
		<path id="Vector" d="M1959.52 428.83C1879.04 367.28 1803.8 312.83 1729.49 262.38C1721.95 257.26 1714.5 251.93 1706.61 246.3C1677.93 225.8 1648.27 204.6 1612.55 192.23C1570.87 177.85 1526.93 180.22 1493.31 183.88C1421.49 191.57 1350.1 211.58 1268.62 246.87C1238.06 260.17 1208.19 274.75 1179.31 288.86C1144.25 305.99 1111.12 322.17 1076.81 336.26C1070.63 338.8 1064.52 341.24 1058.63 343.51C1023.99 356.85 992.44 366.45 962.21 372.88C945.27 376.48 928.55 379.09 912.52 380.63C895.41 382.28 878.49 382.77 862.24 382.09C829.27 380.72 798.39 374.72 770.46 364.26C740.29 352.97 714.62 336.8 694.15 316.21C693.19 315.24 692.23 314.24 691.29 313.26C675.69 296.83 663.33 278.84 651.37 261.45C647.75 256.18 644.01 250.74 640.25 245.44C623.24 221.42 606.08 201.3 587.78 183.93C585.39 181.66 582.91 179.38 580.43 177.16C535.19 136.69 475.23 103.67 407.03 81.67C325.86 55.6 242.11 46.4 171.22 55.77C95.31 65.95 21.34 109.97 34.2 163.31L33.93 163.34C30.71 150 32.59 136.85 39.53 124.27C45.86 112.77 56.25 101.95 70.41 92.11C83.58 82.97 99.37 75.07 117.35 68.64C134.46 62.53 153.06 58.01 171.16 55.58C208.47 50.65 249.06 50.79 291.78 56C330.26 60.69 369.08 69.27 407.15 81.51C475.38 103.51 535.38 136.55 580.65 177.05C583.13 179.27 585.61 181.55 588 183.82C606.31 201.2 623.48 221.33 640.5 245.36C644.26 250.66 648 256.1 651.62 261.37C663.57 278.76 675.92 296.74 691.52 313.15C692.46 314.14 693.42 315.14 694.38 316.11C733.71 355.68 793.33 379.04 862.26 381.91C920.61 384.33 984.8 371.72 1058.5 343.35C1064.38 341.08 1070.49 338.64 1076.67 336.1C1110.97 322.01 1144.09 305.83 1179.16 288.7C1208.04 274.6 1237.91 260.01 1268.47 246.71C1349.98 211.41 1421.41 191.39 1493.26 183.7C1515.86 181.23 1534.56 180.44 1552.14 181.22C1574.6 182.21 1594.4 185.75 1612.67 192.06C1648.43 204.45 1678.11 225.66 1706.81 246.17C1714.69 251.8 1722.14 257.12 1729.68 262.24C1804 312.7 1879.24 367.15 1959.72 428.7L1959.52 428.83Z" fill="#B5B0CA" fill-opacity="1.000000" fill-rule="nonzero"/>
		<path id="Vector" d="M1956.61 427.06C1876.9 364.84 1802.98 309.76 1730.64 258.66C1723.15 253.38 1715.75 247.84 1707.92 241.97C1680.01 221.08 1651.16 199.48 1615.74 187.37C1573.15 172.87 1527.16 177.6 1496.28 182.42C1412.45 195.34 1337.33 225.37 1274.9 253.05C1252.47 263.04 1230.09 273.62 1208.43 283.85C1165.02 304.38 1124.01 323.77 1080.96 339.64C1074.63 341.98 1068.32 344.22 1062.23 346.3C1026.91 358.32 994.42 366.67 962.92 371.81C927.21 377.64 893.02 379.11 861.32 376.17C828.74 373.15 798.23 365.64 770.62 353.84C741.67 341.48 716.66 324.68 696.27 303.92C695.32 302.95 694.36 301.95 693.42 300.96C678.21 284.83 665.69 267.34 653.59 250.42C649.62 244.88 645.52 239.14 641.4 233.57C623.47 209.24 606.44 189.87 587.81 172.58C585.38 170.33 582.88 168.08 580.37 165.88C534.54 125.79 474.12 93.24 405.66 71.77C323.95 46.24 239.97 37.69 169.19 47.69C93.01 58.6 20.56 102.01 31.17 155.79L30.9 155.82C28.26 142.47 30.54 129.34 37.66 116.78C44.19 105.28 54.65 94.45 68.73 84.6C81.87 75.41 97.58 67.45 115.44 60.94C132.44 54.75 151.01 50.1 169.14 47.5C206.41 42.24 247.03 42.04 289.88 46.93C328.46 51.33 367.45 59.63 405.78 71.6C474.28 93.08 534.73 125.64 580.58 165.76C583.09 167.96 585.6 170.22 588.03 172.47C606.67 189.76 623.7 209.15 641.64 233.48C645.76 239.06 649.87 244.79 653.83 250.34C665.93 267.25 678.45 284.74 693.65 300.85C694.58 301.85 695.54 302.84 696.49 303.82C736.13 344.17 794.68 369.8 861.35 375.98C921.14 381.53 986.81 371.76 1062.11 346.13C1068.19 344.05 1074.5 341.81 1080.82 339.48C1123.86 323.6 1164.87 304.22 1208.28 283.7C1229.93 273.47 1252.31 262.88 1274.75 252.89C1316.73 234.28 1351.65 220.53 1384.65 209.62C1423.49 196.78 1459.98 187.82 1496.22 182.24C1518.3 178.79 1537.56 177.23 1555.08 177.47C1577.63 177.77 1597.51 180.96 1615.86 187.2C1651.32 199.32 1680.2 220.94 1708.12 241.85C1715.95 247.71 1723.35 253.25 1730.83 258.53C1803.18 309.62 1877.1 364.71 1956.82 426.93L1956.61 427.06Z" fill="#B5B0CA" fill-opacity="1.000000" fill-rule="nonzero"/>
		<path id="Vector" d="M1953.7 425.28C1874.75 362.39 1802.16 306.67 1731.78 254.94C1724.4 249.52 1717.1 243.79 1709.36 237.72C1682.19 216.41 1654.1 194.37 1618.92 182.51C1575.87 168.04 1530.01 174.69 1499.25 180.96C1423.3 196.29 1355.56 225.47 1281.18 259.23C1267.77 265.34 1254.21 271.64 1241.07 277.75C1190.62 301.21 1138.43 325.47 1085.1 343.02C1078.62 345.15 1072.13 347.19 1065.82 349.07C1030.27 359.69 995.88 366.98 963.63 370.74C927.09 374.99 892.35 374.83 860.38 370.24C828.26 365.64 798.12 356.61 770.78 343.42C743.13 330.06 718.76 312.64 698.37 291.62C697.43 290.65 696.48 289.65 695.55 288.65C680.79 272.91 668.2 255.99 656.02 239.62C651.63 233.72 647.09 227.62 642.53 221.69C623.9 197.39 606.52 178.18 587.83 161.23C585.37 159.01 582.83 156.77 580.28 154.59C533.88 114.88 473.03 82.81 404.29 61.86C322.04 36.88 237.83 28.98 167.17 39.61C93.41 50.82 19.61 92.72 28.13 148.26L27.86 148.28C25.82 134.94 28.49 121.82 35.8 109.29C42.52 97.77 53.04 86.93 67.05 77.07C92.89 58.88 129.37 45.16 167.11 39.42C204.34 33.82 245.01 33.29 287.99 37.85C326.66 41.95 365.82 49.97 404.4 61.69C473.17 82.65 534.07 114.73 580.5 154.47C583.05 156.65 585.59 158.89 588.05 161.12C606.75 178.07 624.14 197.29 642.78 221.6C647.33 227.53 651.87 233.63 656.26 239.53C668.44 255.89 681.03 272.81 695.78 288.55C696.71 289.54 697.66 290.54 698.6 291.51C739.39 333.56 795.35 360.72 860.43 370.05C920.69 378.7 989.75 371.58 1065.71 348.9C1072.02 347.01 1078.5 344.98 1084.97 342.85C1138.29 325.3 1190.47 301.05 1240.92 277.59C1254.04 271.49 1267.61 265.18 1281.03 259.07C1313.58 244.3 1351.46 227.35 1389.06 213.2C1428.39 198.4 1464.4 187.79 1499.17 180.78C1521.05 176.32 1540.3 174.01 1558.01 173.71C1580.34 173.34 1600.87 176.24 1619.03 182.34C1634.79 187.65 1650.65 195.59 1667.52 206.59C1682.42 216.3 1696.22 227.13 1709.56 237.6C1717.29 243.66 1724.6 249.39 1731.98 254.81C1802.36 306.54 1874.95 362.26 1953.9 425.15L1953.7 425.28Z" fill="#B5B0CA" fill-opacity="1.000000" fill-rule="nonzero"/>
		<path id="Vector" d="M1950.78 423.5C1872.61 359.93 1801.35 303.58 1732.92 251.23C1725.68 245.68 1718.5 239.78 1710.9 233.53C1684.44 211.78 1657.08 189.28 1622.1 177.65C1589.41 166.82 1550.2 167.42 1502.22 179.5C1435.14 196.28 1375.17 224.37 1311.68 254.1C1303.77 257.8 1295.6 261.63 1287.46 265.41C1284.28 266.89 1281.09 268.38 1277.91 269.87C1217.41 298.09 1154.86 327.27 1089.24 346.39C1082.61 348.33 1075.93 350.17 1069.42 351.86C1033.07 361.27 997.73 367.26 964.34 369.66C926.96 372.35 891.67 370.55 859.45 364.32C827.83 358.19 798.06 347.66 770.96 332.99C744.7 318.78 720.99 300.72 700.49 279.33C699.56 278.35 698.61 277.35 697.69 276.35C683.49 261.1 670.94 244.86 658.8 229.15C653.88 222.79 648.79 216.21 643.69 209.81C624.33 185.53 606.6 166.48 587.86 149.88C585.37 147.67 582.8 145.46 580.22 143.3C533.23 103.97 471.92 72.38 402.91 51.96C320.13 27.53 235.69 20.27 165.15 31.53C92.74 43.18 19.05 85.42 25.11 140.74L24.83 140.75C23.37 127.41 26.43 114.31 33.94 101.81C40.86 90.28 51.43 79.42 65.37 69.56C91.11 51.33 127.45 37.4 165.09 31.34C202.27 25.41 242.98 24.54 286.09 28.78C324.85 32.58 364.2 40.33 403.02 51.79C472.07 72.22 533.42 103.83 580.43 143.18C583.01 145.34 585.58 147.56 588.07 149.76C606.82 166.37 624.56 185.42 643.92 209.72C649.03 216.12 654.12 222.7 659.04 229.06C671.17 244.76 683.73 261 697.91 276.25C698.84 277.24 699.78 278.24 700.71 279.22C742.39 322.73 797.31 352.09 859.52 364.13C920.94 376.02 991.52 371.83 1069.31 351.67C1075.82 349.99 1082.5 348.15 1089.13 346.22C1154.73 327.1 1217.27 297.93 1277.75 269.71C1280.93 268.22 1284.12 266.73 1287.31 265.25C1295.43 261.47 1303.61 257.64 1311.52 253.94C1375.02 224.2 1435.01 196.11 1502.12 179.32C1523.8 173.86 1543.04 170.8 1560.95 169.96C1583.37 168.9 1603.98 171.44 1622.22 177.48C1637.89 182.69 1653.55 190.66 1670.11 201.84C1684.71 211.7 1698.13 222.74 1711.11 233.41C1718.71 239.66 1725.89 245.56 1733.13 251.1C1801.56 303.45 1872.82 359.81 1950.99 423.38L1950.78 423.5Z" fill="#B5B0CA" fill-opacity="1.000000" fill-rule="nonzero"/>
		<path id="Vector" d="M1947.87 421.72C1876.52 362.49 1804.59 303.87 1734.07 247.51C1726.89 241.8 1719.78 235.67 1712.24 229.19C1687.74 208.08 1659.98 184.16 1625.28 172.79C1592.21 161.98 1552.93 163.69 1505.19 178.03C1448.42 195.02 1398.18 220.01 1345 246.47C1328.34 254.75 1311.11 263.32 1293.74 271.59C1263.42 286.04 1230.61 301.34 1196.23 315.28C1159.4 330.2 1125.76 341.48 1093.37 349.77C1086.56 351.51 1079.72 353.15 1073.01 354.63C1035.9 362.86 999.58 367.54 965.07 368.55C926.87 369.66 891.02 366.24 858.51 358.39C798.49 343.7 746.03 312.96 702.59 267.03C701.67 266.05 700.73 265.04 699.81 264.05C686.34 249.47 674 234.09 662.08 219.22C656.46 212.22 650.66 204.98 644.82 197.93C624.73 173.66 606.64 154.78 587.88 138.53C585.36 136.34 582.75 134.15 580.14 132.01C532.58 93.06 470.82 61.96 401.54 42.05C318.22 18.17 233.55 11.56 163.13 23.44C90.28 35.81 18.44 77.49 22.08 133.21L21.8 133.22C20.93 119.87 24.39 106.79 32.07 94.32C39.2 82.77 49.83 71.91 63.69 62.03C76.74 52.73 92.21 44.59 109.67 37.85C126.62 31.31 144.58 26.4 163.06 23.26C200.21 16.99 240.96 15.79 284.19 19.7C323.05 23.21 362.57 30.67 401.65 41.88C470.97 61.79 532.76 92.91 580.35 131.89C582.96 134.03 585.57 136.22 588.09 138.41C606.86 154.67 624.96 173.55 645.06 197.84C650.9 204.88 656.7 212.12 662.32 219.13C674.24 234 686.57 249.37 700.04 263.95C700.96 264.94 701.9 265.94 702.82 266.92C746.22 312.82 798.64 343.53 858.6 358.21C920.37 373.14 994.48 371.84 1072.93 354.45C1079.63 352.97 1086.48 351.33 1093.28 349.59C1165.68 331.07 1231.93 300.82 1293.57 271.43C1310.96 263.16 1328.18 254.6 1344.83 246.31C1398.03 219.85 1448.28 194.86 1505.08 177.86C1552.89 163.49 1592.25 161.78 1625.4 172.62C1640.94 177.71 1656.36 185.69 1672.56 197.02C1686.85 207.01 1699.87 218.22 1712.46 229.07C1719.99 235.56 1727.1 241.68 1734.28 247.38C1804.8 303.75 1876.73 362.36 1948.08 421.6L1947.87 421.72Z" fill="#B5B0CA" fill-opacity="1.000000" fill-rule="nonzero"/>
		<path id="Vector" d="M1944.96 419.95C1874.7 360.38 1804.13 301.12 1735.22 243.79C1728.26 238.02 1721.36 231.79 1714.05 225.19C1690.16 203.59 1663.07 179.11 1628.47 167.93C1595 157.13 1555.65 159.96 1508.16 176.56C1458.4 193.93 1412.68 218.46 1368.47 242.19C1346.3 254.08 1323.38 266.38 1300.02 277.76C1263.15 295.74 1232.13 309.46 1202.4 320.93C1165.73 335.08 1131.42 345.62 1097.51 353.14C1090.55 354.69 1083.52 356.12 1076.61 357.41C1040.6 364.12 1005.24 367.51 971.4 367.51C969.52 367.51 967.65 367.5 965.79 367.48C926.68 367.04 890.27 361.99 857.58 352.46C841.8 347.83 826.35 341.96 811.65 335C797.84 328.46 784.27 320.76 771.31 312.11C748 296.55 726.21 277.78 704.7 254.73C703.78 253.74 702.86 252.74 701.94 251.75C689.46 238.15 677.65 223.93 666.23 210.18C659.64 202.25 652.82 194.04 645.96 186.05C624.83 161.44 606.92 143.28 587.9 127.18C585.34 125.01 582.71 122.84 580.06 120.72C531.93 82.15 469.72 51.53 400.17 32.15C316.32 8.81 231.42 2.85 161.11 15.36C89.63 28.12 17.88 70.12 19.05 125.69L18.77 125.69C18.23 99.81 33.18 75.19 62.01 54.51C75.04 45.16 90.43 36.97 107.75 30.15C124.61 23.52 142.54 18.48 161.04 15.18C198.14 8.57 238.94 7.04 282.3 10.62C321.25 13.84 360.94 21.02 400.27 31.97C469.86 51.36 532.11 82.01 580.27 120.6C582.92 122.72 585.56 124.89 588.12 127.06C607.15 143.17 625.06 161.34 646.2 185.96C653.06 193.95 659.88 202.16 666.47 210.09C677.89 223.84 689.69 238.05 702.17 251.65C703.09 252.64 704.01 253.64 704.93 254.63C750.64 303.6 800.61 335.55 857.69 352.28C936.74 375.34 1020.34 367.7 1076.54 357.23C1083.43 355.94 1090.47 354.51 1097.43 352.96C1175.41 335.65 1246.57 303.6 1299.86 277.61C1323.22 266.23 1346.14 253.93 1368.3 242.04C1412.52 218.31 1458.25 193.78 1508.03 176.4C1529.28 168.97 1548.52 164.4 1566.83 162.45C1589.41 160.04 1610.19 161.83 1628.58 167.76C1644.08 172.77 1659.36 180.82 1675.29 192.36C1689.33 202.53 1702.01 213.99 1714.27 225.07C1721.58 231.67 1728.47 237.91 1735.43 243.67C1804.34 301 1874.91 360.27 1945.17 419.83L1944.96 419.95Z" fill="#B5B0CA" fill-opacity="1.000000" fill-rule="nonzero"/>
		<path id="Vector" d="M1942.04 418.17L1736.36 240.07C1729.65 234.26 1722.97 227.93 1715.91 221.23C1692.6 199.12 1666.19 174.07 1631.65 163.07C1598.25 152.44 1557.7 156.49 1511.13 175.1C1466.35 192.99 1425.51 216.78 1386.02 239.79C1360.27 254.79 1333.65 270.29 1306.3 283.94C1224.1 324.96 1152.25 349.19 1080.21 360.19C1050.31 364.76 1020.84 367.05 992.24 367.05C983.57 367.05 974.99 366.84 966.5 366.42C926.47 364.43 889.51 357.74 856.65 346.53C826.2 336.14 798.34 321.48 771.49 301.7C750.05 285.9 729.5 267.07 706.81 242.43C694.84 229.43 683.25 215.92 672.03 202.86C646.66 173.3 620.42 142.73 587.94 115.82C538.11 74.56 472.71 42.2 398.8 22.24C314.41 -0.55 229.28 -5.86 159.09 7.28C91.13 20.01 17.37 60.13 16.02 118.16L15.74 118.16C16.35 92.22 31.77 67.61 60.33 46.99C86.16 28.34 121.2 14.18 159.02 7.1C196.08 0.16 236.92 -1.71 280.4 1.55C319.45 4.47 359.31 11.37 398.9 22.06C435.47 31.94 470.2 44.94 502.13 60.7C534.33 76.6 563.27 95.1 588.14 115.7C620.64 142.61 646.89 173.19 672.27 202.76C683.48 215.82 695.08 229.33 707.05 242.33C740.14 278.27 787.07 322.58 856.77 346.36C936.71 373.62 1022.37 368.83 1080.15 360.01C1152.16 349.01 1223.97 324.79 1306.14 283.79C1333.48 270.14 1360.1 254.64 1385.84 239.64C1425.34 216.63 1466.19 192.83 1510.99 174.93C1557.64 156.29 1598.28 152.24 1631.77 162.9C1647.23 167.82 1662.37 175.94 1678.05 187.72C1691.85 198.08 1704.2 209.79 1716.13 221.12C1723.2 227.82 1729.86 234.14 1736.58 239.96L1942.26 418.05L1942.04 418.17Z" fill="#B5B0CA" fill-opacity="1.000000" fill-rule="nonzero"/>
		<path id="Vector" d="M1940.39 404.48C1888.01 354.89 1843.07 314.65 1798.97 277.85C1777.56 259.97 1755.69 242.37 1733.98 225.54C1727.41 220.45 1720.9 215.04 1714.01 209.3C1696.7 194.9 1678.8 180 1658.19 168.94C1647.13 162.99 1636.48 158.73 1625.64 155.92C1592.35 147.2 1553.3 152.96 1509.56 173.06C1486.93 183.44 1466.32 195.25 1449.14 205.44C1430.96 216.23 1413.02 228.12 1395.68 239.63C1370.74 256.16 1344.96 273.26 1317.25 287.94C1300.38 296.9 1283.29 304.91 1266.43 311.74C1232.71 325.41 1196.52 336.67 1158.86 345.22C1135.6 350.44 1112.22 354.38 1089.38 356.94C1069.68 359.14 1049.97 360.41 1030.76 360.71C1002.01 361.17 973.99 359.43 947.49 355.54C919.32 351.4 892.66 344.79 868.25 335.89C846.49 327.96 825.93 317.97 805.41 305.36C767.16 281.87 736.65 254.71 714.35 233.68C703.39 223.29 692.7 212.71 682.35 202.47C652.56 172.98 624.42 145.13 589.21 120.32C560.49 100.21 527.72 82.87 491.81 68.75C464.21 57.91 434.19 49.04 402.59 42.39C395.06 40.8 387.39 39.33 379.8 38.01C347.11 32.33 310.31 28.63 270.42 27.01C230.21 25.35 195.41 26.79 164.06 31.43C146.34 34.03 129.17 38.11 113.02 43.56C56 62.79 19.39 95.07 15.08 129.92L14.74 129.89C15.88 120.61 19.26 111.46 24.75 102.7C29.98 94.38 37.15 86.35 46.08 78.85C62.94 64.67 86.04 52.39 112.86 43.34C129.04 37.89 146.24 33.8 163.99 31.2C195.38 26.55 230.2 25.11 270.44 26.78C310.35 28.39 347.17 32.1 379.89 37.78C387.49 39.1 395.16 40.58 402.69 42.16C434.32 48.82 464.36 57.69 491.98 68.55C527.92 82.67 560.71 100.04 589.44 120.15C624.68 144.97 652.83 172.83 682.63 202.33C692.97 212.57 703.67 223.16 714.62 233.54C736.91 254.56 767.41 281.71 805.63 305.18C826.13 317.78 846.67 327.76 868.41 335.68C916.18 353.09 970.8 361.43 1030.75 360.48C1049.94 360.17 1069.65 358.91 1089.31 356.71C1112.14 354.15 1135.5 350.21 1158.75 344.99C1196.39 336.45 1232.56 325.2 1266.26 311.53C1283.1 304.71 1300.18 296.7 1317.03 287.75C1344.73 273.07 1370.51 255.98 1395.43 239.45C1412.79 227.95 1430.72 216.05 1448.92 205.26C1466.1 195.07 1486.72 183.25 1509.37 172.86C1528.85 163.91 1547.7 157.73 1565.42 154.49C1587.18 150.5 1607.48 150.91 1625.76 155.7C1636.64 158.52 1647.32 162.79 1658.41 168.75C1679.04 179.83 1696.95 194.74 1714.28 209.15C1721.17 214.89 1727.67 220.3 1734.23 225.39C1755.96 242.22 1777.82 259.82 1799.24 277.7C1843.34 314.51 1888.29 354.75 1940.67 404.34L1940.39 404.48Z" fill="#B5B0CA" fill-opacity="1.000000" fill-rule="nonzero"/>
		<path id="Vector" d="M1938.73 390.79C1890.17 340.36 1844.59 298.16 1799.4 261.78C1777.35 244.01 1754.54 226.93 1731.59 211.01C1725.5 206.79 1719.49 202.4 1713.13 197.76C1694.07 183.84 1674.36 169.46 1652.29 159.5C1641.14 154.46 1630.46 150.94 1619.63 148.76C1578.16 140.4 1536.04 156.24 1508 171.01C1488.14 181.44 1470 193.23 1451.62 205.4C1435.54 216.06 1420.4 227.52 1404.38 239.66C1380.6 257.67 1356.01 276.29 1328.19 291.93C1311.68 301.26 1294.43 309.33 1276.97 315.91C1244.42 328.17 1208.77 337.69 1168 345.02C1145.18 349.11 1121.81 352.03 1098.54 353.69C1078.9 355.07 1059.31 355.57 1040.28 355.15C1011.98 354.55 984.32 351.82 958.06 347.04C930.48 342.03 904.16 334.69 879.85 325.26C858.54 316.99 837.97 306.73 816.96 293.89C778.79 270.61 746.1 244.81 721.88 224.92C712.92 217.56 704.1 210.16 695.57 202.99C661.59 174.46 629.49 147.51 590.48 124.81C561.32 107.84 528.58 93.49 493.18 82.17C466.39 73.6 438 67.17 406.39 62.53C399.1 61.47 391.67 60.5 384.33 59.67C352.09 56.04 317.69 54.66 276.06 53.24C246.05 52.16 206.76 51.46 169.03 55.57C151.15 57.48 133.88 60.8 117.67 65.43C60.62 81.75 21.91 110.25 14.14 141.67L13.73 141.63C15.79 133.29 19.97 125.12 26.14 117.33C32.02 109.91 39.74 102.79 49.1 96.18C66.88 83.6 90.54 72.88 117.51 65.17C133.75 60.53 151.06 57.2 168.96 55.29C206.73 51.17 246.05 51.88 276.07 52.96C317.72 54.38 352.14 55.75 384.4 59.39C391.74 60.22 399.17 61.18 406.48 62.25C438.12 66.9 466.54 73.33 493.35 81.91C528.79 93.24 561.55 107.6 590.74 124.59C629.78 147.31 661.89 174.27 695.88 202.81C704.41 209.97 713.23 217.38 722.2 224.73C746.41 244.61 779.09 270.41 817.23 293.67C838.22 306.5 858.77 316.74 880.05 325C927.87 343.57 981.78 353.61 1040.3 354.87C1059.3 355.28 1078.88 354.79 1098.5 353.41C1121.75 351.75 1145.1 348.83 1167.89 344.74C1208.64 337.42 1244.25 327.91 1276.77 315.66C1294.23 309.09 1311.44 301.03 1327.93 291.71C1355.73 276.08 1380.31 257.47 1404.08 239.46C1420.11 227.32 1435.24 215.86 1451.34 205.2C1469.72 193.01 1487.87 181.22 1507.76 170.78C1525.93 161.2 1543.86 154.32 1561.04 150.31C1581.88 145.44 1601.63 144.83 1619.75 148.48C1630.62 150.68 1641.34 154.2 1652.52 159.26C1674.63 169.24 1694.36 183.63 1713.43 197.56C1719.79 202.2 1725.81 206.59 1731.89 210.81C1754.85 226.73 1777.66 243.82 1799.71 261.6C1844.92 297.98 1890.51 340.19 1939.07 390.63L1938.73 390.79Z" fill="#B5B0CA" fill-opacity="1.000000" fill-rule="nonzero"/>
		<path id="Vector" d="M1937.07 377.09C1891.62 325.14 1846.73 282.17 1799.82 245.72C1777.15 228.06 1753.39 211.49 1729.21 196.48C1724.05 193.28 1718.73 189.87 1713.58 186.58C1692.34 172.98 1670.37 158.91 1646.38 150.07C1635.12 145.9 1624.41 143.13 1613.63 141.6C1572.25 135.76 1532.5 153.25 1506.45 168.95C1488.78 179.55 1472.64 191.57 1457.03 203.19L1454.1 205.36C1439.93 215.9 1426.63 227.46 1412.55 239.71C1390.13 259.2 1366.94 279.35 1339.13 295.93C1322.95 305.64 1305.57 313.77 1287.5 320.08C1255.98 331.09 1220.91 338.95 1177.12 344.81C1154.48 347.84 1131.12 349.74 1107.69 350.44C1088.11 351 1068.63 350.72 1049.8 349.59C992.77 346.2 939.49 334.43 891.44 314.61C870.66 306.05 850.08 295.52 828.51 282.42C792 260.3 759.54 237.56 729.42 216.17C725.38 213.3 721.38 210.45 717.42 207.62C676.28 178.31 637.42 150.62 591.75 129.31C561.94 115.39 529.24 104.05 494.55 95.58C469.09 89.37 441.49 85.15 410.19 82.68C403.14 82.13 395.97 81.68 388.87 81.33C371.01 80.48 352.07 80.35 332.02 80.2C315.91 80.08 299.26 79.96 281.69 79.47C247.75 78.44 209.28 77.27 173.98 79.72C155.77 80.98 138.39 83.53 122.32 87.32C65.29 100.74 24.49 125.46 13.19 153.44L12.72 153.35C15.7 145.97 20.68 138.78 27.52 131.96C34.06 125.44 42.34 119.23 52.12 113.5C70.83 102.55 95.05 93.38 122.16 87C138.27 83.21 155.68 80.65 173.93 79.39C209.26 76.94 247.75 78.11 281.7 79.14C299.26 79.63 315.92 79.75 332.02 79.87C352.08 80.02 371.02 80.15 388.9 81C396 81.35 403.18 81.8 410.24 82.36C441.58 84.82 469.21 89.05 494.71 95.27C529.43 103.75 562.17 115.11 592.02 129.03C637.73 150.37 676.6 178.07 717.76 207.4C721.73 210.22 725.72 213.07 729.76 215.94C759.88 237.33 792.33 260.06 828.82 282.18C850.37 295.26 870.93 305.78 891.68 314.34C939.68 334.13 992.89 345.88 1049.84 349.27C1068.65 350.39 1088.11 350.67 1107.67 350.11C1131.07 349.41 1154.41 347.52 1177.03 344.49C1220.77 338.64 1255.81 330.79 1287.28 319.79C1305.31 313.49 1322.66 305.38 1338.81 295.68C1366.59 279.13 1389.76 258.99 1412.16 239.5C1426.25 227.26 1439.56 215.69 1453.74 205.14L1456.67 202.97C1472.29 191.34 1488.44 179.32 1506.12 168.71C1532.26 152.96 1572.15 135.41 1613.72 141.28C1624.55 142.81 1635.31 145.59 1646.61 149.79C1670.65 158.65 1692.64 172.72 1713.91 186.34C1719.05 189.63 1724.37 193.04 1729.53 196.25C1753.72 211.26 1777.49 227.83 1800.18 245.5C1847.1 281.97 1892.01 324.96 1937.47 376.92L1937.07 377.09Z" fill="#B5B0CA" fill-opacity="1.000000" fill-rule="nonzero"/>
		<path id="Vector" d="M1935.41 363.39C1893.68 310.66 1848.21 265.66 1800.26 229.65C1776.94 212.1 1752.24 196.06 1726.84 181.96C1723.17 179.92 1719.41 177.81 1715.78 175.77C1691.77 162.26 1666.94 148.3 1640.49 140.65C1629.14 137.33 1618.4 135.3 1607.64 134.45C1566.38 131.18 1528.99 150.29 1504.89 166.9C1489.93 177.16 1476.42 188.57 1463.36 199.61C1461.1 201.52 1458.85 203.42 1456.58 205.32C1444.16 215.75 1432.54 227.4 1420.25 239.74C1399.34 260.71 1377.72 282.39 1350.08 299.92C1333.84 310.22 1316.82 318.18 1298.03 324.26C1258.74 336.98 1219.48 341.69 1186.25 344.62C1163.78 346.6 1140.43 347.46 1116.85 347.19C1097.32 346.93 1077.97 345.87 1059.31 344.04C1004 338.61 951.42 325.13 903.03 303.98C882.89 295.18 862.3 284.38 840.06 270.96C817.59 257.43 796.66 244.41 776.41 231.82C762.65 223.26 749.65 215.18 736.96 207.42C688.98 178.11 645.03 152.34 593.04 133.81C562.59 122.96 529.92 114.61 495.94 109C471.58 104.98 445.55 103.02 414.01 102.83C407.2 102.8 400.27 102.85 393.41 102.99C382.99 103.23 372.2 103.71 360.79 104.23C338.89 105.21 314.06 106.33 287.32 105.7C277.13 105.46 266.74 105.13 256.69 104.8C230.85 103.96 204.12 103.09 178.94 103.86C160.45 104.44 142.96 106.23 126.96 109.2C70.03 119.77 27.14 140.71 12.23 165.21L11.73 165.07C15.63 158.65 21.41 152.43 28.91 146.59C36.11 140.97 44.94 135.67 55.14 130.83C74.8 121.49 99.58 113.89 126.82 108.84C142.85 105.86 160.38 104.06 178.91 103.49C204.12 102.71 230.85 103.58 256.72 104.42C266.76 104.75 277.15 105.09 287.33 105.33C314.05 105.95 338.86 104.84 360.75 103.85C372.17 103.34 382.96 102.85 393.39 102.62C400.26 102.48 407.2 102.42 414.01 102.46C445.59 102.64 471.66 104.6 496.06 108.63C530.09 114.25 562.8 122.61 593.29 133.48C616.78 141.84 640.57 152.45 666.05 165.88C688.85 177.91 711.03 191.08 737.32 207.14C750.02 214.9 763.02 222.98 776.78 231.54C797.02 244.13 817.96 257.14 840.42 270.67C862.63 284.08 883.21 294.88 903.32 303.66C951.64 324.78 1004.15 338.24 1059.39 343.67C1078.02 345.5 1097.35 346.56 1116.85 346.81C1140.4 347.09 1163.73 346.22 1186.17 344.24C1219.36 341.32 1258.56 336.62 1297.79 323.92C1316.53 317.85 1333.51 309.92 1349.7 299.65C1377.29 282.14 1398.9 260.48 1419.79 239.53C1432.09 227.18 1443.71 215.53 1456.15 205.09C1458.41 203.19 1460.67 201.28 1462.93 199.37C1476 188.33 1489.51 176.91 1504.5 166.64C1520.17 155.84 1536.26 147.52 1552.3 141.93C1571.3 135.32 1589.94 132.67 1607.69 134.08C1618.5 134.93 1629.3 136.97 1640.7 140.3C1667.21 147.98 1692.07 161.96 1716.11 175.48C1719.75 177.52 1723.5 179.63 1727.17 181.67C1752.59 195.78 1777.31 211.84 1800.65 229.4C1826.11 248.52 1851.05 270.3 1874.76 294.15C1895.73 315.22 1916.29 338.46 1935.88 363.21L1935.41 363.39Z" fill="#B5B0CA" fill-opacity="1.000000" fill-rule="nonzero"/>
		<path id="Vector" d="M1933.75 349.69C1895.13 295.44 1850.36 249.65 1800.69 213.59C1776.74 196.15 1751.09 180.62 1724.47 167.43C1723.2 166.81 1721.93 166.18 1720.66 165.55C1692.98 151.82 1664.35 137.61 1634.61 131.22C1623.09 128.74 1612.31 127.46 1601.66 127.29C1560.56 126.66 1525.51 147.37 1503.35 164.85C1490.31 175.08 1478.73 186.29 1467.53 197.13C1464.77 199.81 1461.9 202.58 1459.08 205.28C1448.31 215.56 1438.31 227.25 1427.72 239.63C1408.45 262.15 1388.53 285.43 1361.03 303.92C1345.12 314.61 1327.96 322.63 1308.56 328.44C1270.38 339.88 1231.6 342.88 1195.38 344.42C1173.04 345.37 1149.69 345.21 1126.01 343.94C1106.55 342.87 1087.31 341.03 1068.82 338.48C1015.4 331.13 963.52 315.94 914.63 293.34C895.05 284.3 875.02 273.54 851.62 259.49C807.14 232.86 774.11 214.11 744.52 198.68C685.68 167.99 640.77 149.94 594.36 138.32C563.28 130.53 530.65 125.18 497.34 122.42C474.24 120.5 449.72 120.67 417.84 122.98C411.31 123.46 404.62 124.02 397.97 124.66C391.69 125.27 385.31 125.96 378.55 126.7C353.6 129.42 325.32 132.51 292.96 131.94C275.9 131.63 258.47 130.8 241.62 130C222.47 129.09 202.67 128.14 183.9 128.01C165.07 127.88 147.48 128.92 131.61 131.09C74.86 138.84 29.88 156 11.28 177L10.75 176.78C15.58 171.33 22.17 166.09 30.32 161.21C38.19 156.5 47.56 152.11 58.17 148.14C78.79 140.45 104.14 134.4 131.49 130.67C147.4 128.5 165.03 127.46 183.9 127.59C202.69 127.72 222.51 128.66 241.66 129.58C258.51 130.38 275.93 131.21 292.97 131.51C325.28 132.09 353.53 129 378.45 126.28C385.21 125.54 391.6 124.85 397.88 124.24C404.54 123.6 411.23 123.04 417.77 122.56C449.69 120.25 474.26 120.07 497.41 122C530.76 124.77 563.45 130.13 594.56 137.92C641.04 149.56 685.99 167.63 744.89 198.34C774.49 213.78 807.53 232.54 852.02 259.17C875.41 273.21 895.41 283.96 914.97 293C963.79 315.56 1015.6 330.72 1068.94 338.07C1087.4 340.61 1106.62 342.44 1126.05 343.52C1149.72 344.79 1173.03 344.95 1195.32 344C1231.5 342.46 1270.22 339.46 1308.31 328.05C1327.64 322.27 1344.74 314.27 1360.59 303.62C1388.03 285.17 1407.94 261.92 1427.18 239.42C1437.78 227.04 1447.79 215.34 1458.57 205.04C1461.4 202.34 1464.26 199.57 1467.03 196.89C1478.23 186.04 1489.82 174.82 1502.88 164.58C1517.34 153.16 1532.51 144.14 1547.95 137.75C1566.03 130.26 1584.11 126.61 1601.67 126.88C1612.39 127.04 1623.22 128.33 1634.79 130.82C1664.63 137.24 1693.3 151.46 1721.02 165.21C1722.29 165.84 1723.56 166.47 1724.83 167.1C1751.48 180.3 1777.16 195.85 1801.14 213.3C1850.85 249.4 1895.66 295.23 1934.3 349.51L1933.75 349.69Z" fill="#B5B0CA" fill-opacity="1.000000" fill-rule="nonzero"/>
		<path id="Vector" d="M1209.05 344.22C1207.51 344.22 1205.99 344.22 1204.49 344.22C1182.28 344.15 1158.94 342.97 1135.16 340.68C1115.77 338.79 1096.65 336.17 1078.34 332.91C1052.18 328.27 1025.93 321.58 1000.3 313.06C975.55 304.82 950.63 294.61 926.22 282.7C902.3 271.04 879.97 258.04 863.17 248.02C823.89 224.64 786.51 205.1 752.08 189.93C696.31 165.37 646.61 150.4 595.67 142.82C564.94 138.24 531.97 135.83 500.23 135.83C499.73 135.83 499.24 135.83 498.75 135.83C471.48 135.89 445.59 139.37 421.68 143.12C415.45 144.1 409.01 145.17 402.54 146.31C398.99 146.94 395.44 147.59 391.68 148.27C365.16 153.12 335.11 158.61 298.59 158.16C276.36 157.89 253.65 156.31 231.68 154.78C217.5 153.79 202.83 152.77 188.85 152.15C169.62 151.31 151.92 151.58 136.25 152.97C79.81 157.95 32.72 171.34 10.3 188.79L9.79 188.48C21.29 179.53 38.59 171.78 61.2 165.45C82.8 159.4 108.72 154.92 136.16 152.5C151.88 151.11 169.62 150.84 188.89 151.69C202.89 152.3 217.56 153.33 231.75 154.31C253.7 155.84 276.4 157.42 298.61 157.7C335.03 158.15 365.03 152.66 391.5 147.82C395.26 147.14 398.82 146.49 402.37 145.86C408.85 144.72 415.29 143.64 421.52 142.66C445.48 138.91 471.41 135.43 498.75 135.36C531 135.28 564.56 137.71 595.82 142.36C622.11 146.28 647.59 152.04 673.73 159.98C698.9 167.63 724.65 177.3 752.45 189.54C786.91 204.71 824.31 224.27 863.62 247.67C880.4 257.69 902.72 270.67 926.61 282.32C976.14 306.48 1027.25 323.35 1078.51 332.46C1096.8 335.72 1115.89 338.33 1135.25 340.22C1159.01 342.5 1182.31 343.69 1204.49 343.75C1239.21 343.85 1279.53 343.05 1318.84 332.18C1338.75 326.68 1355.96 318.63 1371.48 307.58C1398.73 288.18 1416.8 263.28 1434.27 239.2C1443.26 226.82 1451.75 215.12 1460.98 204.99C1463.94 201.74 1466.92 198.4 1469.81 195.17C1479.56 184.24 1489.64 172.95 1501.25 162.51C1514.52 150.5 1528.77 140.76 1543.58 133.56C1560.76 125.21 1578.27 120.54 1595.63 119.67C1606.34 119.14 1617.22 119.68 1628.87 121.34C1660.04 125.76 1690.93 138.61 1722.47 152.52C1749.96 164.65 1777.33 180.1 1801.61 197.2C1828.57 216.15 1853.91 238.38 1876.92 263.26C1897.41 285.44 1916.18 309.85 1932.71 335.81L1932.08 336C1896.59 280.24 1852.53 233.65 1801.12 197.53C1776.87 180.45 1749.55 165.02 1722.09 152.92C1690.61 139.03 1659.78 126.21 1628.73 121.8C1617.14 120.15 1606.33 119.61 1595.68 120.14C1563.78 121.73 1530.44 136.88 1501.8 162.8C1490.21 173.22 1480.13 184.5 1470.39 195.41C1467.51 198.65 1464.52 201.99 1461.56 205.24C1452.35 215.35 1443.87 227.04 1434.89 239.41C1426.31 251.23 1417.45 263.45 1407.28 275.19C1395.74 288.51 1384.2 299.21 1371.98 307.91C1356.39 319.01 1339.1 327.09 1319.1 332.62C1301.47 337.49 1282.52 340.71 1261.16 342.47C1243.07 343.95 1224.91 344.22 1209.05 344.22Z" fill="#B5B0CA" fill-opacity="1.000000" fill-rule="nonzero"/>
		<path id="Vector" d="M1253.12 345.17C1239.11 345.17 1225.65 344.6 1213.6 344.02C1191.46 342.95 1168.14 340.73 1144.3 337.43C1124.99 334.72 1105.99 331.33 1087.84 327.35C1038.13 316.49 989.05 298.4 937.8 272.06C915.45 260.58 894.38 248.22 874.72 236.55C835.91 213.58 797.19 194.95 759.64 181.19C704.4 160.94 652.72 150.18 597 147.31C565.25 145.68 531.76 146.35 500.17 149.24C473.72 151.65 448.79 157.49 425.51 163.25C419.69 164.7 413.5 166.29 407.11 167.96C405.51 168.38 403.9 168.81 402.27 169.24C375.46 176.35 345.13 184.4 306.2 184.4C305.54 184.4 304.89 184.4 304.23 184.39C277.89 184.21 251 181.63 224.99 179.13C214.68 178.14 204.02 177.12 193.79 176.29C173.8 174.68 156.5 174.2 140.88 174.84C84.05 177.16 36.09 186.54 9.29 200.58L8.84 200.17C22.08 193.23 41.24 187.2 64.23 182.74C86.84 178.35 113.33 175.44 140.83 174.32C156.5 173.68 173.85 174.16 193.87 175.78C204.12 176.6 214.78 177.63 225.09 178.61C251.08 181.11 277.94 183.68 304.23 183.87C343.97 184.15 374.79 175.97 401.99 168.75C403.62 168.32 405.23 167.89 406.83 167.47C413.22 165.79 419.42 164.21 425.25 162.76C448.56 156.98 473.54 151.14 500.06 148.72C531.71 145.83 565.24 145.16 597.05 146.79C624.66 148.21 650.99 151.56 677.54 157.03C704.88 162.66 731.84 170.41 759.98 180.72C797.59 194.51 836.36 213.16 875.21 236.16C894.86 247.82 915.92 260.17 938.25 271.64C989.43 297.94 1038.43 316 1088.06 326.85C1106.18 330.82 1125.16 334.21 1144.43 336.92C1168.25 340.22 1191.54 342.43 1213.65 343.49C1250.85 345.28 1290.43 346.2 1329.36 336.29C1349.85 331.08 1367.19 322.98 1382.36 311.54C1409.39 291.17 1426.22 263.37 1441.07 238.85C1448.54 226.52 1455.59 214.86 1463.38 204.93C1466.19 201.34 1469.02 197.64 1471.75 194.06C1480.3 182.85 1489.15 171.26 1499.61 160.44C1511.72 147.83 1525.04 137.37 1539.21 129.35C1555.48 120.15 1572.42 114.46 1589.57 112.46C1600.29 111.2 1611.21 111 1622.94 111.84C1655.71 114.18 1689 125.76 1720.1 137.93C1748.81 149.16 1777.16 164.09 1802.08 181.09C1829.79 199.95 1855.33 222.39 1877.98 247.81C1898.24 270.53 1916.12 295.53 1931.12 322.09L1930.42 322.28C1898.52 265.81 1853.96 217.11 1801.54 181.45C1776.68 164.48 1748.38 149.59 1719.73 138.38C1688.7 126.24 1655.5 114.69 1622.86 112.35C1611.2 111.52 1600.36 111.72 1589.71 112.96C1558.04 116.67 1526.27 133.62 1500.25 160.72C1489.8 171.52 1480.97 183.1 1472.42 194.3C1469.69 197.88 1466.86 201.58 1464.05 205.17C1456.28 215.08 1449.23 226.73 1441.77 239.05C1426.9 263.61 1410.04 291.45 1382.92 311.89C1367.66 323.39 1350.23 331.53 1329.63 336.78C1311.75 341.33 1292.46 343.96 1270.66 344.83C1264.77 345.07 1258.9 345.17 1253.12 345.17Z" fill="#B5B0CA" fill-opacity="1.000000" fill-rule="nonzero"/>
		<path id="Vector" d="M1280.78 347.21C1280.57 347.21 1280.38 347.21 1280.18 347.21C1260.38 347.18 1240.93 345.51 1222.71 343.81C1200.61 341.75 1177.3 338.51 1153.43 334.17C1134.22 330.65 1115.35 326.48 1097.35 321.79C1049.62 309.37 1002.61 290.19 949.39 261.42C930.23 251.07 911.37 239.92 893.13 229.13C890.85 227.78 888.56 226.44 886.28 225.09C847.27 202.12 807.2 184.41 767.21 172.44C712.44 156.06 657.2 149.31 598.33 151.81C566.06 153.18 532.61 156.93 501.6 162.64C477.13 167.15 455.33 174.39 429.36 183.39C424.1 185.22 418.48 187.19 411.68 189.6L411.3 189.74C398.19 194.43 383.32 199.74 366.64 203.78C347.49 208.42 328.91 210.65 309.86 210.62C280.15 210.57 249.83 206.78 220.52 203.11C213.33 202.21 205.9 201.28 198.73 200.44C178.16 198.03 160.75 196.81 145.5 196.72C89.35 196.38 39.33 202.09 8.27 212.38L7.91 211.87C23.13 206.83 43.65 202.74 67.27 200.04C90.92 197.33 117.98 195.99 145.51 196.16C160.8 196.25 178.26 197.47 198.87 199.88C206.05 200.72 213.48 201.65 220.66 202.55C249.95 206.21 280.23 210 309.86 210.06C310 210.06 310.13 210.06 310.26 210.06C352.66 210.06 384.95 198.52 410.92 189.24L411.3 189.1C418.11 186.69 423.73 184.71 428.99 182.88C455 173.87 476.84 166.62 501.38 162.1C532.45 156.37 565.95 152.62 598.28 151.25C627.09 150.02 654.26 150.96 681.35 154.1C710.55 157.48 738.74 163.31 767.54 171.93C807.61 183.91 847.74 201.65 886.82 224.66C889.1 226.01 891.39 227.36 893.67 228.71C911.9 239.49 930.75 250.63 949.9 260.98C1003.05 289.71 1050 308.86 1097.64 321.26C1115.61 325.95 1134.46 330.11 1153.65 333.63C1177.48 337.96 1200.75 341.2 1222.81 343.26C1262.36 346.95 1301.06 349.51 1339.89 340.43C1360.97 335.5 1378.42 327.35 1393.25 315.52C1420.05 294.15 1434.68 264.53 1447.6 238.4C1453.64 226.16 1459.35 214.61 1465.79 204.9C1468.27 201.16 1470.76 197.29 1473.17 193.55C1480.68 181.87 1488.46 169.78 1497.99 158.39C1508.96 145.17 1521.37 133.99 1534.85 125.17C1550.22 115.11 1566.59 108.41 1583.53 105.27C1594.03 103.32 1604.74 102.37 1616.26 102.37C1616.51 102.37 1616.76 102.37 1617.01 102.37C1652.81 102.5 1689.64 113.65 1717.74 123.36C1747.67 133.7 1777 148.1 1802.56 164.99C1831.03 183.76 1856.77 206.43 1879.06 232.37C1899.07 255.65 1916.05 281.23 1929.54 308.4L1928.76 308.59C1908.69 268.16 1870.39 210.5 1801.98 165.4C1776.49 148.54 1747.22 134.18 1717.37 123.86C1689.35 114.19 1652.63 103.06 1617.01 102.93C1605.28 102.89 1594.4 103.83 1583.75 105.81C1552.37 111.64 1522.17 130.41 1498.71 158.67C1489.19 170.04 1481.43 182.11 1473.92 193.78C1471.51 197.52 1469.02 201.39 1466.54 205.13C1460.12 214.82 1454.42 226.36 1448.38 238.58C1435.44 264.76 1420.78 294.43 1393.88 315.89C1378.95 327.8 1361.38 336 1340.16 340.96C1322.18 345.17 1302.75 347.21 1280.78 347.21Z" fill="#B5B0CA" fill-opacity="1.000000" fill-rule="nonzero"/>
		<path id="Vector" d="M1302.77 349.87C1298.5 349.87 1294.15 349.77 1289.68 349.58C1270.15 348.76 1251.17 346.29 1231.81 343.61C1209.39 340.51 1186.74 336.36 1162.57 330.92C1143.46 326.58 1124.71 321.63 1106.85 316.22C1061.54 302.51 1016.56 282.33 960.99 250.78C947.18 242.95 933.39 234.73 920.05 226.79C912.79 222.46 905.28 217.99 897.84 213.62C858.36 190.5 816.96 173.7 774.78 163.7C719.06 150.48 661.78 148.06 599.68 156.3C566.87 160.65 533.45 167.48 503.03 176.04C478.6 182.92 457.31 192.58 434.78 202.8L433.22 203.51C429.7 205.11 426.14 206.74 422.54 208.38C420.46 209.33 418.37 210.28 416.27 211.25C403.12 217.27 388.93 223.56 372.65 228.4C353.76 234.02 335.06 236.78 315.5 236.85C282.94 236.96 249.72 231.77 217.61 226.74C213.02 226.02 208.28 225.28 203.68 224.58C182.1 221.28 165.08 219.38 150.13 218.6C94.94 215.72 42.86 217.75 7.24 224.17L7.01 223.58C42.73 217.14 94.91 215.1 150.2 217.99C165.19 218.77 182.25 220.68 203.87 223.98C208.48 224.69 213.22 225.43 217.81 226.14C249.53 231.11 282.33 236.24 314.46 236.24C314.81 236.24 315.15 236.24 315.5 236.24C357.06 236.09 386.65 224.09 415.77 210.74C417.88 209.77 419.97 208.82 422.04 207.87C425.65 206.23 429.2 204.6 432.73 203L434.28 202.29C456.86 192.05 478.18 182.37 502.7 175.47C533.17 166.89 566.65 160.06 599.51 155.69C661.77 147.44 719.2 149.86 775.08 163.12C817.36 173.15 858.86 189.98 898.42 213.15C905.86 217.52 913.37 222 920.63 226.32C933.97 234.27 947.76 242.48 961.55 250.31C1017.06 281.82 1061.98 301.97 1107.21 315.66C1125.04 321.07 1143.77 326 1162.86 330.34C1186.99 335.77 1209.61 339.91 1232 343.01C1265.99 347.71 1308.3 353.57 1350.43 344.55C1372.09 339.91 1389.66 331.72 1404.14 319.49C1430.68 297.09 1442.98 265.59 1453.84 237.79C1458.55 225.72 1463.01 214.32 1468.21 204.85C1470.23 201.16 1472.26 197.35 1474.23 193.66C1480.81 181.29 1487.62 168.49 1496.36 156.32C1506.23 142.5 1517.71 130.6 1530.48 120.97C1544.96 110.06 1560.77 102.35 1577.48 98.07C1588.2 95.32 1599.19 93.62 1611.07 92.88C1626.99 91.9 1643.93 92.95 1662.87 96.1C1678.89 98.77 1696.06 102.92 1715.38 108.78C1746.52 118.22 1776.83 132.09 1803.03 148.89C1832.27 167.57 1858.21 190.46 1880.14 216.93C1899.89 240.76 1915.98 266.93 1927.96 294.7L1927.1 294.87C1901.8 236.24 1857.52 184.55 1802.42 149.34C1776.29 132.59 1746.07 118.76 1715.01 109.34C1673.4 96.72 1640.4 91.68 1611.15 93.49C1599.35 94.23 1588.44 95.91 1577.79 98.64C1538.04 108.83 1512 135.78 1497.16 156.59C1488.44 168.73 1481.64 181.51 1475.06 193.87C1473.1 197.56 1471.07 201.38 1469.04 205.07C1463.86 214.5 1459.41 225.89 1454.7 237.95C1443.82 265.81 1431.49 297.37 1404.84 319.87C1390.24 332.2 1372.52 340.46 1350.69 345.14C1335.89 348.3 1320.11 349.87 1302.77 349.87Z" fill="#B5B0CA" fill-opacity="1.000000" fill-rule="nonzero"/>
		<path id="Vector" d="M1321.82 352.91C1292.76 352.91 1264.81 347.79 1240.92 343.41C1218.43 339.28 1195.8 334.13 1171.71 327.66C1152.69 322.51 1134.06 316.79 1116.35 310.66C1063.21 292.28 1015.85 265.91 972.57 240.14C963.74 234.88 954.81 229.46 946.18 224.22C934.2 216.94 921.81 209.41 909.39 202.15C869.32 178.8 826.59 162.92 782.36 154.95C725.16 144.64 665.84 146.55 601.03 160.78C567.66 168.11 534.27 178.02 504.47 189.43C481.49 198.24 462.04 209.36 441.46 221.12C440 221.96 438.54 222.79 437.07 223.63L436.27 224.09C431.27 226.95 426.09 229.91 420.85 232.88C408.28 240.03 394.43 247.43 378.42 253.08C359.84 259.64 341.1 262.91 321.14 263.08C286.1 263.38 250.38 256.62 215.84 250.08C213.42 249.63 211.01 249.17 208.61 248.72C185.84 244.43 169.22 241.89 154.75 240.48C100.95 235.22 46.8 233.57 6.19 235.95L6.11 235.29C46.78 232.91 101.01 234.56 154.88 239.82C169.4 241.24 186.05 243.79 208.87 248.08C211.27 248.53 213.68 248.99 216.1 249.45C250.57 255.97 286.22 262.71 321.13 262.42C364.48 262.05 395.01 246.72 420.23 232.37C425.48 229.4 430.65 226.44 435.65 223.58L436.45 223.12C437.92 222.28 439.38 221.45 440.84 220.62C461.46 208.83 480.94 197.69 504 188.86C533.85 177.42 567.3 167.49 600.73 160.15C631.46 153.41 660.32 149.51 688.97 148.25C720.92 146.83 752.42 148.88 782.61 154.32C826.97 162.31 869.83 178.24 910.02 201.65C922.44 208.91 934.83 216.44 946.82 223.72C955.45 228.96 964.37 234.38 973.2 239.64C1016.43 265.38 1063.74 291.73 1116.77 310.07C1134.47 316.19 1153.07 321.91 1172.06 327.05C1196.11 333.51 1218.71 338.65 1241.17 342.77C1275.64 349.09 1318.55 356.95 1360.95 348.68C1383.19 344.33 1400.88 336.08 1415.02 323.46C1441.28 300.01 1451.11 266.57 1459.78 237.06C1463.26 225.21 1466.55 214.01 1470.61 204.82C1472.11 201.41 1473.61 197.9 1475.07 194.5C1480.77 181.2 1486.66 167.45 1494.72 154.27C1503.49 139.82 1514.05 127.2 1526.09 116.77C1539.69 105.01 1554.93 96.3 1571.41 90.87C1582.11 87.35 1593.14 84.91 1605.12 83.41C1621.27 81.38 1639.19 81.45 1658.38 83.61C1675.18 85.5 1693.56 89.06 1712.99 94.2C1745.35 102.75 1776.65 116.09 1803.49 132.78C1833.49 151.38 1859.63 174.49 1881.2 201.49C1900.69 225.87 1915.89 252.63 1926.37 281L1925.43 281.16C1903.23 221.04 1859.7 168.52 1802.85 133.27C1776.09 116.64 1744.9 103.34 1712.65 94.81C1670.84 83.76 1635.73 80.24 1605.3 84.06C1593.4 85.55 1582.45 87.97 1571.82 91.47C1532.62 104.37 1508.74 132.88 1495.61 154.53C1487.57 167.68 1481.68 181.41 1475.99 194.69C1474.54 198.08 1473.03 201.6 1471.53 205.01C1467.48 214.17 1464.2 225.35 1460.72 237.19C1456.55 251.39 1451.82 267.47 1444.96 282.56C1437.1 299.84 1427.55 313.35 1415.78 323.86C1408.98 329.94 1401.16 335.11 1392.54 339.24C1383.26 343.68 1372.73 347.07 1361.21 349.31C1348.04 351.89 1334.82 352.91 1321.82 352.91Z" fill="#B5B0CA" fill-opacity="1.000000" fill-rule="nonzero"/>
		<path id="Vector" d="M1339 356.25C1329.39 356.25 1319.33 355.61 1308.68 354.33C1287.75 351.81 1267.71 347.23 1250.02 343.2C1227.73 338.11 1204.46 331.79 1180.85 324.4C1161.94 318.45 1143.44 311.96 1125.84 305.09C1075.31 285.39 1031.78 259.2 984.16 229.5C979.92 226.86 975.63 224.17 971.47 221.56C955.11 211.31 938.19 200.7 920.95 190.68C880.22 167.06 836.14 152.1 789.95 146.21C731.68 138.78 668.57 145.19 602.37 165.26C568.41 175.56 535.05 188.55 505.91 202.82C483.96 213.57 465.9 226.23 446.78 239.65C444.84 241.01 442.88 242.38 440.92 243.75C436.04 247.17 430.78 250.84 425.43 254.51C414.21 262.25 400.54 271.06 384.2 277.75C365.91 285.25 347.13 289.03 326.78 289.31C289.53 289.81 251.62 281.35 214.95 273.17L213.56 272.86C195.6 268.85 176.61 264.81 159.37 262.35C106.82 254.86 52.05 249.66 5.15 247.71L5.22 247.01C52.16 248.96 106.98 254.16 159.58 261.66C176.87 264.12 195.9 268.17 213.88 272.18L215.27 272.49C251.86 280.66 289.7 289.1 326.76 288.6C369.57 288.02 399.13 271.63 424.7 254.01C430.05 250.34 435.31 246.67 440.19 243.25C442.15 241.88 444.1 240.51 446.05 239.15C465.2 225.71 483.3 213.02 505.31 202.24C534.51 187.94 567.93 174.93 601.96 164.61C633.01 155.19 663.58 148.71 692.79 145.33C726.16 141.47 758.92 141.53 790.14 145.51C836.51 151.42 880.75 166.44 921.62 190.14C938.87 200.17 955.8 210.78 972.17 221.04C976.32 223.64 980.62 226.33 984.85 228.97C1032.43 258.65 1075.92 284.81 1126.36 304.47C1143.93 311.33 1162.42 317.82 1181.28 323.75C1204.86 331.13 1228.09 337.45 1250.35 342.53C1285.24 350.49 1328.67 360.39 1371.49 352.8C1394.33 348.75 1412.13 340.46 1425.91 327.43C1451.88 302.89 1459.4 265.91 1465.44 236.19C1467.79 224.61 1470.01 213.68 1473.02 204.78C1473.97 201.98 1474.93 199.09 1475.86 196.29C1480.67 181.77 1485.64 166.74 1493.1 152.22C1504.63 129.62 1526.52 99.38 1565.36 83.69C1576.08 79.35 1587.15 76.16 1599.19 73.94C1630.68 68.02 1668.18 69.93 1710.63 79.62C1744.2 87.28 1776.48 100.1 1803.97 116.68C1834.72 135.19 1861.07 158.52 1882.28 186.05C1892.02 198.67 1900.61 212.16 1907.85 226.13C1914.76 239.47 1920.45 253.32 1924.79 267.31L1923.78 267.45C1904.69 205.84 1861.9 152.48 1803.29 117.21C1775.9 100.69 1743.75 87.92 1710.3 80.29C1668.05 70.65 1630.75 68.74 1599.46 74.62C1587.51 76.83 1576.53 79.99 1565.88 84.29C1527.3 99.88 1505.54 129.96 1494.08 152.45C1486.63 166.94 1481.67 181.94 1476.86 196.44C1475.94 199.24 1474.98 202.13 1474.03 204.94C1471.03 213.81 1468.81 224.73 1466.46 236.29C1463.42 251.24 1459.98 268.19 1454.09 284.19C1447.33 302.57 1438.38 316.85 1426.75 327.85C1420.11 334.12 1412.34 339.41 1403.67 343.57C1394.32 348.05 1383.58 351.39 1371.74 353.48C1361.35 355.33 1350.5 356.25 1339 356.25Z" fill="#B5B0CA" fill-opacity="1.000000" fill-rule="nonzero"/>
		<path id="Vector" d="M1354.83 359.77C1343.31 359.77 1331.17 358.75 1318.2 356.7C1297.18 353.37 1276.96 347.86 1259.12 342.99C1236.66 336.86 1213.4 329.51 1189.98 321.14C1171.21 314.4 1152.82 307.12 1135.34 299.52C1087.22 278.6 1045.93 251.64 1002.24 223.1C1000.08 221.69 997.91 220.27 995.74 218.86C975.42 205.6 954.41 191.89 932.51 179.22C891.06 155.3 845.65 141.25 797.54 137.46C737.1 132.7 671.89 143.57 603.72 169.74C569.62 182.83 535.4 199.33 507.34 216.21C486.16 228.95 469.17 243.28 451.19 258.46C449.06 260.25 446.92 262.06 444.77 263.86C440.47 267.48 435.36 271.76 430.01 276.15C420.09 284.28 406.58 294.63 389.97 302.41C371.97 310.84 353.15 315.13 332.42 315.54C315.38 315.83 296.58 314.03 274.94 310.02C256.35 306.58 238.38 302.09 218.49 297C200.33 292.29 181.17 287.44 163.98 284.23C113.06 274.72 59.27 266.4 4.11 259.48L4.31 258.74C59.5 265.66 113.32 273.99 164.27 283.5C181.51 286.72 200.7 291.58 218.87 296.29C252.21 304.82 293.71 315.45 332.39 314.79C376.62 313.92 405.04 295.47 429.16 275.66C434.51 271.28 439.63 267 443.92 263.38C446.07 261.58 448.21 259.78 450.33 257.98C468.35 242.78 485.37 228.42 506.62 215.64C534.73 198.73 569.02 182.2 603.18 169.08C671.56 142.83 736.99 131.94 797.66 136.71C820.92 138.54 843.77 142.79 865.57 149.35C888.96 156.38 911.72 166.24 933.22 178.64C955.15 191.33 976.17 205.05 996.5 218.31C998.67 219.73 1000.84 221.14 1003 222.55C1046.66 251.07 1087.9 278 1135.93 298.88C1153.39 306.48 1171.75 313.74 1190.49 320.47C1213.88 328.83 1237.1 336.17 1259.53 342.29C1294.78 351.9 1338.64 363.87 1382.02 356.93C1405.51 353.17 1423.43 344.82 1436.79 331.41C1462.54 305.79 1467.12 266.66 1470.8 235.21C1472.12 223.97 1473.37 213.35 1475.43 204.76C1475.86 202.98 1476.28 201.2 1476.71 199.41C1480.56 183.23 1484.55 166.5 1491.47 150.17C1501.36 126.69 1521.15 94.85 1559.3 76.51C1569.94 71.39 1581.04 67.45 1593.24 64.47C1610.2 60.29 1629.1 58.32 1649.41 58.62C1667.95 58.9 1687.75 61.06 1708.25 65.05C1743.04 71.81 1776.3 84.1 1804.44 100.58C1835.95 119 1862.5 142.56 1883.35 170.61C1892.92 183.48 1901.21 197.24 1907.98 211.51C1914.46 225.18 1919.59 239.34 1923.2 253.62L1922.11 253.75C1906.38 191.55 1863.23 135.93 1803.73 101.15C1775.7 84.74 1742.59 72.51 1707.95 65.77C1665.24 57.46 1625.7 57.26 1593.6 65.18C1581.5 68.14 1570.48 72.04 1559.92 77.12C1522.04 95.34 1502.37 127.02 1492.53 150.38C1485.62 166.67 1481.64 183.37 1477.79 199.53C1477.37 201.32 1476.94 203.11 1476.51 204.88C1474.46 213.43 1473.21 224.04 1471.9 235.27C1468.2 266.81 1463.6 306.05 1437.7 331.84C1431.26 338.3 1423.55 343.71 1414.81 347.92C1405.4 352.44 1394.45 355.72 1382.27 357.67C1373.47 359.07 1364.37 359.77 1354.83 359.77Z" fill="#B5B0CA" fill-opacity="1.000000" fill-rule="nonzero"/>
		<path id="Vector" d="M1369.7 363.44C1356.58 363.44 1342.68 361.99 1327.7 359.07C1306.51 354.93 1286.16 348.47 1268.22 342.78C1245.53 335.58 1222.28 327.2 1199.11 317.87C1180.47 310.35 1162.21 302.3 1144.82 293.95C1102.02 273.38 1065.43 248.19 1026.71 221.51C1020.37 217.15 1013.83 212.64 1007.33 208.21C984.49 192.64 964.99 179.8 944.06 167.75C901.88 143.51 855.13 130.38 805.12 128.71C742.28 126.61 674.97 141.92 605.06 174.21C570.33 190.25 536.13 209.92 508.77 229.58C488.16 244.4 472.04 260.53 454.98 277.6C452.87 279.72 450.75 281.84 448.61 283.97C444.81 287.76 439.77 292.76 434.58 297.76C412.71 318.9 384.14 340.65 338.05 341.76C336.61 341.8 335.17 341.81 333.73 341.81C297.74 341.81 261 332.04 223.41 321.13L221.07 320.44C202.45 314.99 184.86 309.84 168.58 306.09C107.23 291.97 47.9 280.04 3.06 271.24L3.39 270.47C48.23 279.28 107.58 291.2 168.95 305.33C185.28 309.09 202.88 314.25 221.53 319.71L223.87 320.39C262.84 331.7 300.89 341.79 338.01 340.96C383.59 339.86 411.92 318.28 433.62 297.3C438.82 292.3 443.85 287.31 447.65 283.51C449.79 281.39 451.9 279.27 454.02 277.15C471.1 260.05 487.24 243.9 507.92 229.03C535.34 209.32 569.6 189.62 604.4 173.55C636.7 158.63 669.01 147.17 700.43 139.5C736.48 130.69 771.72 126.79 805.18 127.91C855.45 129.58 902.43 142.78 944.81 167.13C965.77 179.2 985.29 192.05 1008.15 207.64C1014.65 212.07 1021.2 216.58 1027.53 220.94C1066.23 247.59 1102.77 272.76 1145.5 293.28C1162.86 301.63 1181.09 309.67 1199.69 317.18C1222.84 326.49 1246.05 334.86 1268.69 342.05C1304.26 353.33 1348.5 367.37 1392.54 361.05C1416.62 357.6 1434.65 349.2 1447.67 335.38C1473.09 308.59 1474.61 267.26 1475.84 234.04C1476.24 223.21 1476.62 212.97 1477.83 204.72L1477.86 204.53C1480.58 186.06 1483.39 166.96 1489.83 148.12C1495.42 131.68 1503.19 116.91 1512.94 104.19C1523.93 89.86 1537.48 78.13 1553.22 69.31C1563.75 63.42 1574.89 58.73 1587.28 54.99C1620.74 44.83 1661.75 43.26 1705.86 50.46C1723.62 53.36 1741.13 57.74 1757.92 63.5C1774.81 69.29 1790.62 76.34 1804.9 84.47C1837.18 102.8 1863.93 126.58 1884.42 155.17C1902.84 180.86 1915.7 210.17 1921.61 239.92L1920.45 240.03C1907.81 176.35 1865.42 119.87 1804.16 85.09C1775.51 68.79 1741.43 57.09 1705.6 51.25C1661.73 44.09 1620.98 45.64 1587.76 55.73C1575.47 59.44 1564.42 64.09 1553.97 69.94C1524.58 86.4 1502.8 113.5 1490.98 148.31C1484.55 167.1 1481.74 186.17 1479.03 204.62L1479 204.81C1477.79 213.02 1477.41 223.25 1477.01 234.07C1475.78 267.38 1474.24 308.85 1448.65 335.82C1442.37 342.48 1434.72 348.01 1425.92 352.25C1416.44 356.82 1405.29 360.04 1392.78 361.84C1385.34 362.91 1377.66 363.44 1369.7 363.44Z" fill="#B5B0CA" fill-opacity="1.000000" fill-rule="nonzero"/>
		<path id="Vector" d="M338.91 368.06C322.81 368.06 305.29 365.91 285.51 361.52C265.86 357.15 246.43 351.13 228.35 345.27C225.08 344.2 221.83 343.14 218.6 342.08C202.54 336.81 187.37 331.84 173.2 327.96C116.67 312.52 62.78 298.64 10.67 285.22L2.04 283L2.47 282.2L11.11 284.43C63.22 297.85 117.11 311.73 173.65 327.18C187.87 331.06 203.06 336.04 219.14 341.32C222.36 342.37 225.61 343.44 228.88 344.5C265.98 356.53 305.41 368.19 343.64 367.15C390.64 365.81 418.81 340.69 438.1 318.95C443.04 313.4 447.8 307.86 451.39 303.65C453.38 301.34 455.35 299.02 457.31 296.71C473.61 277.57 489 259.48 509.24 242.43C535.96 219.93 570.19 197.05 605.64 178.02C638.52 160.36 671.7 146.41 704.27 136.55C741.62 125.24 778.1 119.38 812.7 119.11C864.76 118.58 913.12 130.87 956.41 155.63C980.4 169.38 1001.92 184.24 1019.81 196.98C1029.54 203.9 1039.27 211.01 1048.68 217.88C1081.99 242.19 1116.43 267.33 1155.07 287.7C1172.32 296.79 1190.44 305.61 1208.91 313.9C1231.76 324.13 1254.97 333.52 1277.89 341.81C1313.71 354.77 1358.29 370.9 1403.08 365.18C1427.73 362.03 1445.88 353.58 1458.55 339.36C1483.63 311.36 1481.94 267.76 1480.58 232.72C1480.18 222.36 1479.79 212.58 1480.25 204.7C1481.28 186.93 1482.83 166.29 1488.21 146.07C1492.74 128.94 1499.59 113.44 1508.55 100.01C1518.69 84.81 1531.68 72.07 1547.17 62.14C1557.42 55.55 1568.92 49.97 1581.33 45.53C1599.05 39.18 1618.92 35.18 1640.42 33.66C1660.54 32.23 1681.76 32.98 1703.49 35.89C1721.81 38.34 1739.87 42.37 1757.16 47.87C1774.56 53.4 1790.78 60.3 1805.38 68.37C1822.2 77.65 1837.67 88.62 1851.35 100.96C1864.31 112.66 1875.8 125.7 1885.5 139.73C1903.64 165.97 1915.58 195.88 1920.02 226.23L1918.79 226.31C1909.25 161.15 1867.63 103.82 1804.6 69.03C1775.73 53.07 1739.74 41.6 1703.25 36.72C1658.13 30.68 1616.17 33.99 1581.91 46.28C1569.59 50.68 1558.19 56.23 1548.01 62.76C1518.84 81.47 1499.13 109.55 1489.43 146.23C1484.06 166.39 1482.51 187 1481.49 204.73C1481.03 212.58 1481.41 222.35 1481.81 232.7C1482.48 249.98 1483.24 269.57 1480.69 288.51C1477.73 310.49 1470.84 327.26 1459.61 339.8C1453.5 346.66 1445.91 352.3 1437.05 356.58C1427.49 361.2 1416.14 364.37 1403.31 366.01C1396.84 366.84 1390.37 367.21 1383.94 367.21C1345.45 367.21 1308.15 353.72 1277.31 342.56C1254.36 334.26 1231.12 324.85 1208.24 314.6C1189.75 306.31 1171.61 297.48 1154.32 288.37C1115.61 267.96 1081.13 242.79 1047.78 218.45C1038.37 211.59 1028.64 204.49 1018.92 197.56C1001.06 184.85 979.57 170 955.62 156.28C912.56 131.65 864.49 119.43 812.72 119.96C731.41 120.58 655.64 152.24 606.4 178.68C571.03 197.68 536.86 220.5 510.2 242.96C490.02 259.96 474.65 278.02 458.38 297.13C456.42 299.44 454.44 301.76 452.46 304.08C448.86 308.28 444.1 313.83 439.16 319.39C431.06 328.51 418.35 341.79 401.52 351.75C393.34 356.58 384.64 360.38 375.66 363.04C365.64 366.01 354.88 367.67 343.7 367.99C342.11 368.04 340.51 368.06 338.91 368.06Z" fill="#B5B0CA" fill-opacity="1.000000" fill-rule="nonzero"/>
		<path id="Vector" d="M344.07 394.31C327.96 394.31 310.47 391.99 290.8 387.26C270.43 382.37 250.29 375.49 233.28 369.4C228.06 367.53 222.84 365.63 217.8 363.79C203.69 358.65 190.37 353.8 177.81 349.83C132.7 335.6 87.89 321.7 44.54 308.26C30.21 303.81 15.38 299.22 1.02 294.75L1.56 293.94C15.92 298.4 30.75 303 45.08 307.44C88.42 320.88 133.24 334.78 178.36 349.02C190.95 352.99 204.29 357.85 218.41 363C223.45 364.84 228.67 366.73 233.89 368.61C269.17 381.23 310.09 394.59 349.27 393.33C397.38 391.75 424.4 364.32 442.57 340.6C447.23 334.52 451.73 328.42 455.14 323.79C456.88 321.41 458.62 319.03 460.35 316.66C475.94 295.33 490.66 275.18 510.56 255.83C536.45 230.66 570.65 204.62 606.87 182.49C657.31 151.8 735.27 114.38 820.22 110.32C874.25 107.67 923.97 119.04 968.01 144.13C987.8 155.41 1007.37 168.42 1031.46 186.32C1043.64 195.36 1055.72 204.74 1067.4 213.8C1097.81 237.38 1129.24 261.76 1164.66 282.11C1181.81 291.98 1199.81 301.57 1218.13 310.62C1240.31 321.57 1263.51 331.99 1287.06 341.59C1323.25 356.24 1368.28 374.48 1413.61 369.31C1438.47 366.54 1457.25 357.8 1469.44 343.34C1494.17 314.08 1488.86 266.2 1484.98 231.24C1483.9 221.42 1482.87 212.16 1482.67 204.68C1482.22 188.07 1482.26 166.16 1486.59 144.04C1494.07 105.7 1512.41 75.73 1541.11 54.97C1551.17 47.65 1562.7 41.3 1575.39 36.07C1593.44 28.64 1613.81 23.64 1635.93 21.21C1656.76 18.93 1678.69 18.96 1701.11 21.32C1720.02 23.35 1738.62 27.03 1756.39 32.26C1774.33 37.55 1790.97 44.28 1805.85 52.27C1823.05 61.5 1838.76 72.51 1852.55 84.98C1865.62 96.8 1877.06 110.03 1886.58 124.3C1904.44 151.1 1915.46 181.61 1918.44 212.55L1917.14 212.61C1910.72 145.96 1869.86 87.77 1805.05 52.98C1775.66 37.19 1738.68 26.26 1700.91 22.2C1654.36 17.31 1611.19 22.37 1576.07 36.84C1563.48 42.02 1552.04 48.33 1542.06 55.58C1513.56 76.21 1495.33 106.01 1487.89 144.16C1483.56 166.22 1483.53 188.09 1483.98 204.67C1484.18 212.12 1485.2 221.37 1486.29 231.17C1488.29 249.24 1490.56 269.73 1489.27 289.72C1487.75 313.01 1481.64 330.7 1470.57 343.79C1464.61 350.86 1457.08 356.63 1448.18 360.94C1438.54 365.62 1426.98 368.73 1413.83 370.2C1393.44 372.52 1371.49 370.44 1346.74 363.82C1325.22 358.07 1304.6 349.73 1286.41 342.36C1262.81 332.75 1239.59 322.32 1217.37 311.35C1199.02 302.29 1181 292.68 1163.81 282.81C1128.32 262.41 1096.86 238 1066.43 214.4C1054.75 205.34 1042.67 195.97 1030.5 186.93C1006.45 169.07 986.92 156.08 967.18 144.83C923.4 119.88 873.99 108.57 820.31 111.21C735.72 115.25 658.02 152.57 607.73 183.16C571.59 205.24 537.45 231.23 511.62 256.34C491.78 275.64 477.08 295.76 461.52 317.06C459.78 319.43 458.05 321.81 456.3 324.19C452.89 328.83 448.39 334.94 443.72 341.02C425.39 364.95 398.1 392.63 349.33 394.23C347.6 394.28 345.84 394.31 344.07 394.31Z" fill="#B5B0CA" fill-opacity="1.000000" fill-rule="nonzero"/>
		<path id="Vector" d="M349.34 420.56C305.32 420.56 259.13 402.01 218.18 385.56C205.6 380.51 193.71 375.74 182.42 371.7L0 306.51L0.63 305.67L183.05 370.86C194.38 374.91 206.28 379.69 218.88 384.75C261.41 401.83 309.61 421.19 354.9 419.51C404.07 417.7 429.97 387.96 447.05 362.25C452.63 353.85 458.02 345.29 463.24 337.02C477.5 314.39 492.25 291 511.88 269.23C527.47 251.94 546.83 233.81 567.87 216.79C590.96 198.13 615.68 181.01 641.34 165.9C669.63 149.25 698.39 135.47 726.83 124.96C758.29 113.33 789.28 105.74 818.95 102.39C878.38 95.69 932.43 105.86 979.6 132.63C1018.81 154.87 1052.12 182.37 1084.34 208.97C1112.39 232.12 1141.39 256.06 1174.23 276.52C1212.16 300.16 1253.21 321.97 1296.25 341.35C1332.51 357.68 1377.64 378 1424.15 373.43C1463.43 369.58 1486.14 351.55 1493.57 318.31C1499.9 290.03 1493.88 256.5 1489.05 229.55C1487.4 220.36 1485.84 211.69 1485.08 204.66C1480.87 165.88 1483.55 133.87 1493.29 106.79C1499.37 89.9 1508.34 74.85 1519.95 62.04C1532.92 47.74 1549.57 35.82 1569.44 26.61C1586.63 18.64 1606 12.85 1627.02 9.4C1647.03 6.12 1668.09 5.02 1689.63 6.14C1731.99 8.32 1773.43 18.99 1806.31 36.16C1823.88 45.34 1839.84 56.38 1853.74 68.98C1866.9 80.93 1878.31 94.34 1887.65 108.86C1905.23 136.2 1915.32 167.33 1916.84 198.85L1915.47 198.89C1912.23 131.75 1871.11 71.19 1805.47 36.91C1735.77 0.51 1636.83 -3.5 1570.2 27.39C1504.21 57.99 1476.81 115.95 1486.45 204.59C1487.21 211.6 1488.76 220.26 1490.41 229.43C1495.25 256.44 1501.29 290.05 1494.93 318.45C1491.47 333.92 1484.51 346.35 1474.25 355.4C1468.48 360.49 1461.52 364.65 1453.57 367.76C1445.11 371.07 1435.28 373.3 1424.34 374.37C1419.87 374.81 1415.32 375.03 1410.69 375.03C1393.84 375.03 1375.89 372.11 1356.22 366.18C1334.06 359.51 1312.67 349.88 1295.49 342.14C1252.4 322.73 1211.28 300.89 1173.3 277.22C1140.39 256.72 1111.36 232.75 1083.28 209.57C1051.1 183.01 1017.82 155.54 978.72 133.35C931.86 106.77 878.18 96.66 819.16 103.32C699.77 116.79 576.78 199.02 513.04 269.72C493.46 291.44 478.73 314.8 464.49 337.39C459.27 345.67 453.87 354.23 448.29 362.64C436.95 379.71 425.75 391.93 413.05 401.09C405.12 406.81 396.52 411.32 387.49 414.5C377.44 418.03 366.5 420.03 354.96 420.46C353.1 420.53 351.22 420.56 349.34 420.56Z" fill="#B5B0CA" fill-opacity="1.000000" fill-rule="nonzero"/>
	</g>
</svg>
